<svg width="486" height="485" viewBox="0 0 486 485" fill="none" xmlns="http://www.w3.org/2000/svg">
<path d="M274.125 0.374953C275.799 0.40663 275.799 0.40663 277.508 0.438948C294.553 0.770046 311.589 1.26499 328.625 1.93745C329.635 1.97498 330.644 2.0125 331.684 2.05116C361.426 3.17543 361.426 3.17543 368 9.99995C372.704 16.2859 373.161 22.7049 373.562 30.3125C373.606 31.0143 373.649 31.7162 373.693 32.4394C374.125 40.2883 374.038 48.1423 374 56C379.353 55.9554 384.706 55.8852 390.058 55.7924C391.875 55.7644 393.691 55.7431 395.508 55.729C408.99 55.7301 408.99 55.7301 421.815 51.9462C431.494 47.7542 443.328 49.3931 452.965 52.7421C467.326 58.6936 475.034 67.9867 481 82C485.218 92.4988 483.858 105.607 480 116C474.563 127.031 466.513 136.117 455 141C454.01 141 453.02 141 452 141C452 202.38 452 263.76 452 327C457.28 327.33 462.56 327.66 468 328C474.297 329.595 477.43 331.54 481 337C482.998 342.734 483.614 348.374 484.109 354.406C484.236 355.911 484.236 355.911 484.364 357.447C485.162 367.766 485.303 378.061 485.261 388.407C485.25 391.499 485.261 394.591 485.273 397.684C485.282 407.997 484.991 418.248 484.172 428.531C484.103 429.467 484.034 430.402 483.962 431.366C483.338 438.327 482.205 444.399 477.562 449.875C473.011 453.649 469.06 454.452 463.25 455.062C462.591 455.14 461.933 455.218 461.254 455.299C458.838 455.569 456.422 455.789 454 456C452.999 456.09 451.999 456.181 450.968 456.274C437.54 457.301 424.074 457.187 410.615 457.185C407.77 457.185 404.925 457.192 402.08 457.206C387.035 457.277 372.059 457.123 357.043 456.113C355.872 456.035 354.701 455.958 353.495 455.878C334.777 454.471 334.777 454.471 328.375 448.73C325.446 445.044 324.724 441.064 324.367 436.465C324.242 434.878 324.242 434.878 324.113 433.26C324.035 432.163 323.956 431.067 323.875 429.937C323.789 428.868 323.702 427.799 323.613 426.697C323.058 419.401 323 412.378 323 405C310.13 405 297.26 405 284 405C285.748 411.794 287.545 418.51 289.518 425.233C290.167 427.517 290.78 429.811 291.354 432.115C294.075 443.307 294.075 443.307 300 453C305.666 456.157 311.739 456.748 318.107 457.273C323.983 457.773 329.277 459.35 334 463C334.871 465.034 334.871 465.034 335 467C329.184 474.592 317.567 475.755 308.688 477.125C307.129 477.373 307.129 477.373 305.539 477.626C259.957 484.635 185.704 492.748 144 470C142 468 142 468 141.875 465.375C141.916 464.591 141.957 463.807 142 463C148.251 459.079 154.598 457.178 161.75 455.687C162.566 455.516 163.381 455.345 164.222 455.169C168.545 454.318 172.571 453.807 177 454C177.267 452.709 177.535 451.418 177.81 450.088C178.912 445.138 180.409 440.388 182.039 435.59C182.293 434.832 182.546 434.075 182.807 433.294C183.742 430.507 184.684 427.722 185.625 424.937C187.729 418.688 189.832 412.439 192 406C175.17 405.67 158.34 405.34 141 405C140.34 407.97 139.68 410.94 139 414C137.888 416.749 136.775 419.311 135.437 421.937C135.087 422.628 134.737 423.319 134.377 424.031C131.105 430.228 127.065 435.153 122 440C121.314 440.705 120.628 441.41 119.922 442.137C106.549 455.138 89.6964 458.535 71.625 458.437C70.3179 458.457 69.0108 458.477 67.664 458.498C48.9625 458.489 32.9899 451.998 19.7266 438.891C5.42551 423.729 0.0873183 406.728 0.656238 386.199C1.27008 374.174 5.15222 362.936 12 353C12.7106 352.452 13.4213 351.905 14.1535 351.341C18.8493 347.395 21.1146 344.139 21.8259 338.083C22.2425 331.668 22.1336 325.254 22.05 318.831C22.0508 316.356 22.0556 313.881 22.0641 311.407C22.0738 306.089 22.0564 300.772 22.0145 295.455C21.9543 287.754 21.9479 280.054 21.9551 272.352C21.9658 259.839 21.9393 247.325 21.8865 234.811C21.8354 222.691 21.7918 210.57 21.7654 198.449C21.7637 197.703 21.7621 196.957 21.7604 196.188C21.7429 188.029 21.7305 179.871 21.7258 171.713C21.7252 170.635 21.7252 170.635 21.7246 169.536C21.7231 166.663 21.7218 163.791 21.7211 160.918C21.7192 152.531 21.7019 144.145 21.6556 135.758C21.6238 129.87 21.6114 123.982 21.6058 118.094C21.6 115.686 21.5872 113.279 21.5669 110.872C21.4326 94.455 21.6184 80.981 33 68C43.0547 58.6505 54.4111 55.6609 67.8437 55.8046C68.8534 55.8075 69.8631 55.8103 70.9034 55.8132C74.1024 55.8243 77.3011 55.8494 80.5 55.875C82.6797 55.885 84.8594 55.8941 87.039 55.9023C92.3595 55.9243 97.6797 55.9576 103 56C102.998 55.1638 102.998 55.1638 102.996 54.3108C102.991 51.7332 102.988 49.1557 102.984 46.5781C102.982 45.7017 102.98 44.8253 102.978 43.9223C102.952 15.8132 102.952 15.8132 111.062 7.62495C120.134 0.797805 135.058 2.37197 145.937 1.93745C146.9 1.89671 147.863 1.85596 148.855 1.81398C165.294 1.12053 181.737 0.69153 198.187 0.374953C199.241 0.354398 200.295 0.333844 201.381 0.312666C225.634 -0.145719 249.873 -0.0898042 274.125 0.374953Z" fill="#D0D9FD"/>
<path d="M463.727 58.328C473.229 65.3157 480.522 76.0408 482.789 87.828C484.375 104.16 481.104 115.935 471.75 129.187C467.047 133.997 461.234 138.356 455 141C454.01 141 453.02 141 452 141C452 202.38 452 263.76 452 327C457.28 327.33 462.56 327.66 468 328C474.297 329.595 477.43 331.54 481 337C482.998 342.734 483.614 348.374 484.109 354.406C484.236 355.911 484.236 355.911 484.364 357.447C485.162 367.766 485.303 378.061 485.261 388.407C485.25 391.499 485.261 394.591 485.273 397.683C485.282 407.997 484.991 418.248 484.172 428.531C484.103 429.466 484.034 430.402 483.962 431.365C483.338 438.327 482.205 444.399 477.562 449.875C473.011 453.649 469.06 454.452 463.25 455.062C462.591 455.14 461.933 455.218 461.254 455.299C458.838 455.569 456.422 455.789 454 456C452.999 456.09 451.999 456.181 450.968 456.274C437.54 457.301 424.074 457.187 410.615 457.185C407.77 457.185 404.925 457.192 402.08 457.206C387.035 457.277 372.059 457.123 357.043 456.113C355.872 456.035 354.701 455.958 353.495 455.878C334.777 454.471 334.777 454.471 328.375 448.73C325.446 445.044 324.724 441.064 324.367 436.465C324.242 434.878 324.242 434.878 324.113 433.26C324.035 432.163 323.956 431.067 323.875 429.937C323.789 428.868 323.702 427.799 323.613 426.697C323.058 419.401 323 412.378 323 405C310.13 405 297.26 405 284 405C285.748 411.794 287.545 418.51 289.518 425.233C290.167 427.517 290.78 429.811 291.354 432.115C294.075 443.307 294.075 443.307 300 453C305.666 456.157 311.739 456.748 318.107 457.273C323.983 457.773 329.277 459.35 334 463C334.871 465.034 334.871 465.034 335 467C329.184 474.591 317.567 475.755 308.688 477.125C307.129 477.373 307.129 477.373 305.539 477.626C259.957 484.635 185.704 492.748 144 470C142 468 142 468 141.875 465.375C141.916 464.591 141.957 463.807 142 463C148.251 459.079 154.598 457.178 161.75 455.687C162.566 455.516 163.381 455.345 164.222 455.169C168.545 454.318 172.571 453.807 177 454C177.267 452.709 177.535 451.418 177.81 450.088C178.912 445.138 180.409 440.388 182.039 435.59C182.293 434.832 182.546 434.075 182.807 433.294C183.742 430.507 184.684 427.722 185.625 424.937C187.729 418.688 189.832 412.439 192 406C175.17 405.67 158.34 405.34 141 405C140.34 407.97 139.68 410.94 139 414C137.888 416.749 136.775 419.311 135.437 421.937C135.087 422.628 134.737 423.319 134.377 424.031C131.105 430.228 127.065 435.153 122 440C121.314 440.705 120.628 441.41 119.922 442.137C106.549 455.138 89.6964 458.535 71.625 458.437C70.3179 458.457 69.0108 458.477 67.664 458.498C48.9625 458.489 32.9899 451.998 19.7266 438.891C5.42551 423.729 0.0873183 406.728 0.656238 386.199C1.27008 374.174 5.15222 362.936 12 353C12.7106 352.452 13.4213 351.905 14.1535 351.341C18.8493 347.395 21.1146 344.139 21.8259 338.083C22.2425 331.668 22.1336 325.254 22.05 318.83C22.0508 316.356 22.0556 313.881 22.0641 311.407C22.0738 306.089 22.0564 300.772 22.0145 295.455C21.9542 287.754 21.9479 280.053 21.9551 272.352C21.9658 259.838 21.9393 247.325 21.8865 234.811C21.8354 222.691 21.7918 210.57 21.7654 198.449C21.7637 197.703 21.7621 196.957 21.7604 196.188C21.7429 188.029 21.7305 179.871 21.7258 171.713C21.7252 170.635 21.7252 170.635 21.7246 169.536C21.7231 166.663 21.7218 163.791 21.7211 160.918C21.7192 152.531 21.7019 144.145 21.6556 135.758C21.6238 129.87 21.6114 123.982 21.6058 118.094C21.6 115.686 21.5872 113.279 21.5669 110.872C21.4326 94.4549 21.6184 80.981 33 67.9999C43.0547 58.6504 54.4111 55.6609 67.8437 55.8046C68.8534 55.8074 69.8631 55.8102 70.9034 55.8131C74.1024 55.8243 77.3011 55.8493 80.5 55.8749C82.6797 55.8849 84.8594 55.894 87.039 55.9022C92.3596 55.9225 97.6795 55.9616 103 55.9999C103 63.2599 103 70.5199 103 77.9999C98.3748 78.0385 98.3748 78.0385 93.6562 78.078C90.6509 78.1165 87.6458 78.1616 84.6406 78.2074C82.5613 78.2355 80.4818 78.2568 78.4023 78.2709C75.4031 78.2924 72.4051 78.3391 69.4062 78.3905C68.4851 78.3917 67.5639 78.393 66.6149 78.3942C59.8339 78.5461 54.1077 79.9318 49.1601 84.8163C48.7979 85.3925 48.4357 85.9687 48.0625 86.5624C47.4921 87.4306 47.4921 87.4306 46.9101 88.3163C45.3104 91.2755 44.8736 93.7572 44.8613 97.0547C44.8558 97.8828 44.8504 98.7108 44.8447 99.564C44.8438 100.473 44.8428 101.383 44.8418 102.32C44.8368 103.286 44.8319 104.253 44.8268 105.248C44.8114 108.5 44.8031 111.752 44.7947 115.005C44.7851 117.33 44.7751 119.656 44.7647 121.981C44.7376 128.307 44.7166 134.633 44.6967 140.959C44.6771 146.897 44.6529 152.834 44.6287 158.772C44.5811 170.533 44.5378 182.295 44.4973 194.056C44.4579 205.482 44.4165 216.908 44.3723 228.335C44.3696 229.039 44.3668 229.743 44.364 230.468C44.3504 234.001 44.3366 237.533 44.3229 241.066C44.2089 270.377 44.1022 299.688 44 329C44.6125 328.791 45.2249 328.582 45.856 328.367C46.6623 328.095 47.4687 327.822 48.2995 327.542C49.0976 327.271 49.8957 327 50.718 326.722C66.737 321.655 86.6357 323.802 102 330C102.644 330.351 103.287 330.703 103.95 331.065C106.161 332.073 107.579 332.251 109.992 332.254C110.781 332.26 111.569 332.266 112.382 332.272C113.242 332.268 114.103 332.264 114.989 332.261C116.367 332.266 116.367 332.266 117.773 332.272C120.859 332.282 123.944 332.279 127.029 332.275C129.238 332.279 131.447 332.284 133.657 332.29C139.663 332.303 145.669 332.304 151.675 332.301C156.685 332.3 161.695 332.305 166.705 332.31C179.199 332.322 191.692 332.321 204.186 332.315C215.036 332.309 225.887 332.321 236.737 332.34C247.878 332.359 259.019 332.367 270.16 332.363C276.415 332.362 282.67 332.364 288.925 332.378C294.806 332.391 300.686 332.389 306.567 332.376C308.728 332.373 310.888 332.376 313.048 332.384C315.994 332.395 318.938 332.387 321.884 332.374C323.171 332.385 323.171 332.385 324.484 332.396C329.212 332.353 332.075 331.905 336 329C341.818 327.018 348.411 327.305 354.5 326.937C355.592 326.871 355.592 326.871 356.705 326.802C370.281 325.998 383.84 325.807 397.438 325.812C398.856 325.811 398.856 325.811 400.303 325.81C403.034 325.81 405.765 325.819 408.496 325.832C409.294 325.833 410.092 325.834 410.914 325.836C417.035 325.885 422.844 326.44 429 327C429 266.28 429 205.56 429 143C426.03 142.67 423.06 142.34 420 142C407.006 136.993 398.529 128.495 392.375 116.187C387.882 105.771 387.115 93.329 391 82.6249C391.66 81.0986 392.32 79.5724 393 77.9999C387.06 77.9999 381.12 77.9999 375 77.9999C374.278 72.6776 373.942 67.5425 373.969 62.1678C373.973 61.0092 373.978 59.8506 373.982 58.6569C373.991 57.3417 373.991 57.3417 374 55.9999C375.686 55.9859 375.686 55.9859 377.406 55.9716C381.624 55.9313 385.841 55.8655 390.058 55.7924C391.875 55.7643 393.691 55.743 395.508 55.7289C408.99 55.73 408.99 55.73 421.815 51.9462C435.281 46.1138 452.002 50.6632 463.727 58.328Z" fill="#8D9DEA"/>
<path d="M66.8437 78.4141C67.8534 78.4226 68.8631 78.4311 69.9034 78.4398C73.1034 78.4732 76.3008 78.5484 79.5 78.625C81.6796 78.6551 83.8593 78.6825 86.039 78.707C91.3602 78.7729 96.6799 78.8731 102 79C102.003 79.7052 102.007 80.4105 102.01 81.1371C102.093 98.6775 102.185 116.218 102.287 133.758C102.337 142.242 102.383 150.726 102.422 159.21C102.581 193.449 102.817 227.688 103.678 261.917C103.753 264.893 103.82 267.868 103.879 270.843C103.961 274.934 104.076 279.023 104.194 283.112C104.226 284.906 104.226 284.906 104.258 286.736C104.492 293.612 105.477 298.079 109 304C109.33 304.99 109.66 305.98 110 307C118.786 312.544 131.041 312.733 141.062 313.563C142.902 313.732 142.902 313.732 144.779 313.904C149.515 314.328 154.257 314.668 159 315C160.168 315.083 161.336 315.167 162.54 315.252C186.148 316.892 209.684 317.365 233.346 317.318C236.171 317.312 238.995 317.311 241.82 317.309C270.177 317.283 298.379 316.697 326.642 314.202C329.729 313.937 332.819 313.707 335.909 313.476C339.296 313.217 342.679 312.922 346.062 312.625C347.759 312.491 347.759 312.491 349.49 312.354C357.429 311.549 362.847 309.319 368.375 303.5C374.043 291.293 372.62 275.358 373.062 262.188C373.179 258.862 373.297 255.536 373.419 252.211C373.494 250.155 373.566 248.1 373.633 246.044C373.667 245.105 373.7 244.167 373.735 243.2C373.762 242.386 373.789 241.573 373.817 240.735C374 238 374 238 374.509 234.598C375.337 228.174 375.131 221.695 375.113 215.23C375.113 213.742 375.113 212.253 375.114 210.764C375.114 206.742 375.108 202.72 375.101 198.698C375.095 194.487 375.095 190.276 375.093 186.065C375.09 178.101 375.082 170.136 375.072 162.171C375.061 153.1 375.055 144.028 375.05 134.957C375.04 116.305 375.022 97.6523 375 79C380.61 79 386.22 79 392 79C391.67 80.3613 391.34 81.7225 391 83.125C388.215 97.311 389.901 110.984 397.301 123.473C403.502 132.696 412.601 138.294 423 142C424.98 142.33 426.96 142.66 429 143C429 203.72 429 264.44 429 327C410.85 327 392.7 327 374 327C352.606 325.885 352.606 325.885 331 333C328.141 333.111 325.306 333.157 322.445 333.161C321.083 333.168 321.083 333.168 319.693 333.176C316.624 333.192 313.555 333.2 310.486 333.209C308.295 333.218 306.104 333.228 303.913 333.238C296.691 333.27 289.469 333.29 282.246 333.309C280.403 333.314 280.403 333.314 278.522 333.319C266.927 333.349 255.333 333.376 243.738 333.393C241.05 333.397 238.361 333.401 235.673 333.405C234.671 333.407 234.671 333.407 233.648 333.408C222.857 333.425 212.066 333.466 201.274 333.517C190.182 333.569 179.09 333.597 167.997 333.605C161.775 333.61 155.553 333.625 149.33 333.665C143.464 333.702 137.598 333.71 131.732 333.697C129.589 333.697 127.446 333.707 125.303 333.729C113.647 333.839 103.924 333.2 93.1988 328.386C86.4229 325.451 79.7095 325.783 72.4375 325.75C71.3205 325.729 70.2035 325.709 69.0527 325.688C62.1445 325.655 56.0891 326.437 49.4455 328.353C47 329 47 329 44 329C43.9087 299.071 43.8379 269.142 43.7957 239.214C43.7907 235.679 43.7855 232.144 43.7802 228.609C43.7787 227.554 43.7787 227.554 43.7771 226.477C43.7597 215.088 43.7281 203.7 43.6914 192.311C43.6539 180.622 43.6317 168.933 43.6236 157.244C43.6184 150.68 43.6061 144.116 43.577 137.552C43.5499 131.373 43.5415 125.195 43.5475 119.016C43.5464 116.748 43.5385 114.481 43.5231 112.214C43.5032 109.116 43.508 106.019 43.5189 102.922C43.5073 102.027 43.4956 101.132 43.4836 100.21C43.5491 93.3178 45.2727 88.2136 49.7594 82.9269C55.3652 78.6279 59.9049 78.1914 66.8437 78.4141Z" fill="#FEFEFE"/>
<path d="M110 334C182.27 334 254.54 334 329 334C328.01 336.31 327.02 338.62 326 341C325.446 344.075 325.446 344.075 325.332 347.161C325.268 348.289 325.204 349.418 325.137 350.581C324.925 355.863 324.768 361.14 324.684 366.426C324.652 368.096 324.652 368.096 324.621 369.8C324.556 373.304 324.497 376.808 324.438 380.312C324.394 382.71 324.351 385.108 324.307 387.506C324.2 393.337 324.1 399.169 324 405C310.8 405 297.6 405 284 405C285.748 411.795 287.545 418.51 289.518 425.233C290.167 427.517 290.78 429.811 291.354 432.115C294.075 443.307 294.075 443.307 300 453C305.666 456.157 311.739 456.748 318.107 457.273C323.983 457.773 329.277 459.35 334 463C334.871 465.034 334.871 465.034 335 467C329.184 474.592 317.567 475.755 308.688 477.125C307.129 477.373 307.129 477.373 305.539 477.626C259.957 484.635 185.704 492.748 144 470C142 468 142 468 141.875 465.375C141.916 464.591 141.957 463.808 142 463C148.251 459.079 154.598 457.178 161.75 455.688C162.566 455.516 163.381 455.345 164.222 455.169C168.545 454.318 172.571 453.807 177 454C177.267 452.709 177.535 451.418 177.81 450.088C178.912 445.138 180.409 440.388 182.039 435.59C182.293 434.832 182.546 434.075 182.807 433.294C183.742 430.507 184.684 427.722 185.625 424.938C188.781 415.563 188.781 415.563 192 406C175.17 405.67 158.34 405.34 141 405C141 397.74 141 390.48 141 383C137.544 364.061 129.399 350.76 114.727 338.473C113.076 337.065 111.534 335.534 110 334Z" fill="#514F4E"/>
<path d="M67.8438 55.8047C68.8534 55.8075 69.8631 55.8104 70.9034 55.8133C74.1024 55.8244 77.3011 55.8495 80.5 55.875C82.6797 55.8851 84.8594 55.8942 87.0391 55.9024C92.3596 55.9226 97.6795 55.9618 103 56C103 63.26 103 70.52 103 78C98.3748 78.0387 98.3748 78.0387 93.6562 78.0781C90.651 78.1166 87.6458 78.1618 84.6406 78.2075C82.5613 78.2357 80.4818 78.2569 78.4023 78.271C75.4031 78.2926 72.4051 78.3393 69.4062 78.3906C68.4851 78.3919 67.5639 78.3931 66.6149 78.3944C59.8339 78.5463 54.1077 79.9319 49.1602 84.8164C48.7979 85.3926 48.4357 85.9689 48.0625 86.5625C47.4921 87.4307 47.4921 87.4307 46.9102 88.3164C45.3104 91.2757 44.8736 93.7573 44.8613 97.0549C44.8559 97.8829 44.8504 98.711 44.8447 99.5641C44.8438 100.474 44.8428 101.383 44.8418 102.32C44.8368 103.287 44.8319 104.253 44.8268 105.248C44.8114 108.5 44.8031 111.753 44.7947 115.005C44.7851 117.33 44.7751 119.656 44.7647 121.981C44.7376 128.307 44.7166 134.633 44.6967 140.959C44.6771 146.897 44.6529 152.834 44.6288 158.772C44.5811 170.533 44.5378 182.295 44.4973 194.056C44.458 205.483 44.4165 216.909 44.3723 228.335C44.3696 229.039 44.3669 229.743 44.3641 230.468C44.3504 234.001 44.3367 237.533 44.3229 241.066C44.209 270.377 44.1022 299.689 44 329C44.6125 328.791 45.2249 328.582 45.856 328.367C46.6623 328.095 47.4687 327.823 48.2995 327.542C49.0976 327.271 49.8957 327.001 50.718 326.722C66.737 321.655 86.6357 323.802 102 330C102.644 330.351 103.287 330.702 103.95 331.064C107.44 332.657 111.214 332.287 114.985 332.279C115.903 332.284 116.821 332.29 117.767 332.296C120.85 332.313 123.933 332.316 127.017 332.319C129.224 332.328 131.432 332.338 133.639 332.349C139.639 332.377 145.638 332.392 151.638 332.405C157.905 332.42 164.172 332.447 170.44 332.473C180.962 332.514 191.483 332.549 202.005 332.578C212.842 332.608 223.679 332.643 234.517 332.683C235.185 332.685 235.853 332.688 236.541 332.69C239.892 332.702 243.244 332.715 246.595 332.727C274.397 332.831 302.198 332.92 330 333C330 333.33 330 333.66 330 334C257.73 334.33 185.46 334.66 111 335C113.64 336.98 116.28 338.96 119 341C131.648 351.736 139.86 366.444 142 383C143.104 403.319 139.207 421.1 125.492 436.887C114.401 448.468 100.225 457.266 83.8088 458.177C80.5883 458.232 77.3682 458.277 74.1472 458.295C72.7734 458.307 71.3997 458.327 70.0261 458.357C51.2727 458.762 34.9253 453.301 21.1829 440.33C7.54774 426.855 0.789779 410.735 0.5625 391.688C0.654955 377.577 3.87941 364.783 12 353C12.7106 352.452 13.4213 351.905 14.1535 351.341C18.8494 347.395 21.1146 344.139 21.8259 338.083C22.2426 331.668 22.1336 325.254 22.05 318.831C22.0508 316.356 22.0556 313.881 22.0641 311.407C22.0738 306.089 22.0564 300.772 22.0145 295.455C21.9543 287.754 21.9479 280.054 21.9551 272.352C21.9658 259.839 21.9393 247.325 21.8865 234.812C21.8354 222.691 21.7919 210.57 21.7654 198.449C21.7637 197.703 21.7621 196.957 21.7604 196.188C21.743 188.029 21.7305 179.871 21.7259 171.713C21.7253 170.635 21.7253 170.635 21.7246 169.536C21.7231 166.664 21.7218 163.791 21.7211 160.918C21.7192 152.531 21.7019 144.145 21.6556 135.758C21.6238 129.87 21.6114 123.982 21.6058 118.094C21.6 115.687 21.5872 113.279 21.5669 110.872C21.4326 94.455 21.6184 80.9811 33 68C43.0547 58.6506 54.4111 55.661 67.8438 55.8047Z" fill="white"/>
<path d="M463.727 58.328C473.229 65.3157 480.522 76.0408 482.789 87.828C484.375 104.16 481.104 115.935 471.75 129.187C467.047 133.997 461.234 138.356 455 141C454.01 141 453.02 141 452 141C452.001 141.958 452.002 142.915 452.003 143.902C452.025 167.169 452.041 190.435 452.052 213.702C452.057 224.954 452.064 236.205 452.076 247.457C452.085 257.26 452.092 267.063 452.094 276.866C452.095 282.06 452.099 287.254 452.106 292.448C452.113 297.331 452.115 302.213 452.113 307.096C452.113 308.894 452.115 310.691 452.119 312.489C452.124 314.932 452.123 317.375 452.12 319.818C452.123 320.539 452.126 321.26 452.129 322.003C452.114 326.886 452.114 326.886 451 328C449.378 328.102 447.751 328.129 446.125 328.125C445.241 328.127 444.356 328.13 443.445 328.133C438.619 327.947 433.81 327.437 429 327C429 266.28 429 205.56 429 143C426.03 142.67 423.06 142.34 420 142C407.006 136.993 398.529 128.495 392.375 116.187C387.882 105.771 387.115 93.329 391 82.6249C391.66 81.0986 392.32 79.5724 393 77.9999C387.06 77.9999 381.12 77.9999 375 77.9999C374.278 72.6776 373.942 67.5425 373.969 62.1678C373.973 61.0092 373.978 59.8506 373.982 58.6569C373.988 57.7801 373.994 56.9032 374 55.9999C375.686 55.9859 375.686 55.9859 377.406 55.9716C381.624 55.9313 385.841 55.8655 390.058 55.7924C391.875 55.7643 393.691 55.743 395.508 55.7289C408.99 55.73 408.99 55.73 421.815 51.9462C435.281 46.1138 452.002 50.6632 463.727 58.328Z" fill="#4269C3"/>
<path d="M447.7 326.868C450.641 326.986 453.582 327.086 456.524 327.184C472.654 327.8 472.654 327.8 478.875 333.75C483.043 340.124 483.5 346.978 484.109 354.406C484.194 355.41 484.278 356.413 484.364 357.447C485.162 367.766 485.303 378.061 485.261 388.407C485.25 391.499 485.261 394.591 485.274 397.684C485.282 407.997 484.991 418.248 484.172 428.531C484.103 429.467 484.034 430.402 483.963 431.366C483.338 438.328 482.205 444.4 477.563 449.875C473.014 453.647 469.058 454.457 463.25 455.063C462.499 455.145 461.747 455.227 460.973 455.312C447.639 456.722 434.398 457.149 421 457C421 456.67 421 456.34 421 456C422.079 455.93 423.158 455.86 424.27 455.788C428.304 455.522 432.336 455.233 436.369 454.938C438.108 454.814 439.848 454.696 441.588 454.584C444.102 454.421 446.613 454.236 449.125 454.047C449.893 454.002 450.661 453.957 451.452 453.911C457.687 453.407 463.231 451.584 467.875 447.25C476.187 430.626 473.205 406.176 473.25 388.063C473.258 386.638 473.258 386.638 473.266 385.184C473.321 372.322 472.618 359.761 471 347C470.598 347.821 470.598 347.821 470.188 348.658C469.833 349.377 469.478 350.095 469.112 350.836C468.762 351.548 468.412 352.26 468.051 352.994C460.742 366.954 445.722 379.402 433.488 389.008C430.986 391.011 428.657 393.128 426.313 395.313C406.116 413.747 406.116 413.747 396.668 413.582C391.473 412.449 387.738 408.816 383.747 405.46C381.863 403.885 379.949 402.353 378.027 400.824C371.221 395.39 364.552 389.849 358.137 383.953C356.231 382.211 354.285 380.541 352.313 378.875C341.583 369.46 331.449 359.897 325 347C324.72 341.03 326.095 337.019 329.941 332.508C337.286 327.128 345.998 327.247 354.75 326.813C355.475 326.773 356.2 326.734 356.947 326.693C387.139 325.068 417.501 325.651 447.7 326.868Z" fill="#2C44C8"/>
<path d="M198.899 404.875C199.747 404.879 200.594 404.883 201.467 404.886C202.799 404.886 202.799 404.886 204.157 404.886C207.106 404.887 210.055 404.894 213.004 404.902C215.043 404.904 217.082 404.906 219.12 404.907C224.498 404.91 229.875 404.92 235.253 404.931C240.736 404.941 246.218 404.946 251.701 404.951C262.467 404.962 273.234 404.979 284 405C284.221 405.885 284.221 405.885 284.446 406.789C286.011 412.976 287.721 419.109 289.518 425.233C290.167 427.517 290.78 429.811 291.354 432.115C294.075 443.307 294.075 443.307 300 453C305.666 456.157 311.739 456.748 318.107 457.273C323.983 457.773 329.277 459.35 334 463C334.871 465.034 334.871 465.034 335 467C329.184 474.591 317.567 475.755 308.688 477.125C307.129 477.373 307.129 477.373 305.539 477.626C259.957 484.635 185.704 492.748 144 470C142 468 142 468 141.875 465.375C141.916 464.591 141.957 463.807 142 463C148.251 459.079 154.598 457.178 161.75 455.687C162.566 455.516 163.381 455.345 164.222 455.169C168.545 454.318 172.571 453.807 177 454C177.402 452.062 177.402 452.062 177.812 450.086C178.911 445.152 180.39 440.411 182.004 435.625C182.287 434.774 182.571 433.924 182.863 433.048C183.456 431.269 184.052 429.491 184.65 427.713C185.569 424.981 186.479 422.247 187.389 419.512C187.968 417.778 188.548 416.045 189.129 414.312C189.538 413.083 189.538 413.083 189.956 411.829C192.299 404.887 192.299 404.887 198.899 404.875Z" fill="#393939"/>
<path d="M67.8437 55.8047C68.8534 55.8075 69.8631 55.8104 70.9034 55.8133C74.1024 55.8244 77.3011 55.8495 80.5 55.875C82.6796 55.8851 84.8593 55.8942 87.039 55.9024C92.3595 55.9226 97.6794 55.9618 103 56C103 63.26 103 70.52 103 78C98.3748 78.0387 98.3748 78.0387 93.6562 78.0781C90.6509 78.1166 87.6458 78.1618 84.6406 78.2075C82.5612 78.2357 80.4818 78.2569 78.4023 78.271C75.4031 78.2926 72.4051 78.3393 69.4062 78.3906C68.4851 78.3919 67.5639 78.3931 66.6148 78.3944C59.8339 78.5463 54.1076 79.9319 49.1601 84.8164C48.7979 85.3926 48.4357 85.9689 48.0625 86.5625C47.6822 87.1413 47.3019 87.7201 46.9101 88.3164C45.3072 91.2815 44.8735 93.7666 44.8613 97.0705C44.8531 98.3178 44.8531 98.3178 44.8447 99.5903C44.8437 100.504 44.8428 101.417 44.8417 102.358C44.8368 103.329 44.8319 104.299 44.8268 105.299C44.8114 108.565 44.803 111.831 44.7946 115.096C44.7851 117.432 44.7751 119.767 44.7646 122.103C44.7376 128.456 44.7166 134.808 44.6966 141.161C44.677 147.124 44.6529 153.087 44.6287 159.05C44.581 170.861 44.5378 182.672 44.4973 194.484C44.4579 205.958 44.4165 217.433 44.3723 228.907C44.3696 229.615 44.3668 230.322 44.364 231.05C44.3503 234.598 44.3366 238.145 44.3229 241.693C44.2089 271.128 44.1022 300.564 44 330C43.0822 330.436 42.1643 330.871 41.2187 331.32C39.9789 331.921 38.7393 332.523 37.5 333.125C36.8993 333.409 36.2986 333.692 35.6797 333.984C30.6687 336.437 26.3679 339.543 22 343C21.9086 310.974 21.8379 278.947 21.7957 246.921C21.7907 243.136 21.7855 239.351 21.7802 235.566C21.7792 234.812 21.7781 234.059 21.7771 233.283C21.7597 221.098 21.7281 208.914 21.6914 196.729C21.6539 184.218 21.6317 171.706 21.6236 159.194C21.6181 151.48 21.6009 143.766 21.5683 136.052C21.5446 130.127 21.5422 124.202 21.5475 118.277C21.5464 115.853 21.5385 113.43 21.5231 111.006C21.4239 94.5556 21.5961 81.0064 33 68C43.0547 58.6506 54.4111 55.661 67.8437 55.8047Z" fill="#51504F"/>
<path d="M103.95 331.064C107.44 332.657 111.214 332.287 114.985 332.278C116.362 332.287 116.362 332.287 117.767 332.296C120.85 332.313 123.933 332.316 127.017 332.319C129.224 332.328 131.432 332.338 133.639 332.349C139.639 332.377 145.638 332.392 151.638 332.405C157.905 332.42 164.172 332.447 170.44 332.473C180.962 332.514 191.483 332.549 202.005 332.578C212.842 332.608 223.679 332.643 234.517 332.682C235.519 332.686 235.519 332.686 236.541 332.69C239.892 332.702 243.244 332.715 246.595 332.727C274.397 332.831 302.198 332.92 330 333C330 333.33 330 333.66 330 334C257.73 334.33 185.46 334.66 111 335C113.64 336.98 116.28 338.96 119 341C131.648 351.736 139.86 366.443 142 383C143.104 403.319 139.207 421.1 125.492 436.887C114.401 448.468 100.225 457.266 83.8088 458.177C80.5883 458.232 77.3682 458.276 74.1472 458.295C72.7734 458.306 71.3997 458.327 70.0261 458.357C51.2727 458.762 34.9253 453.301 21.1829 440.33C7.54774 426.855 0.789779 410.735 0.5625 391.687C0.67721 374.18 6.05464 358.244 18.3672 345.41C40.4457 325.199 76.3046 315.979 103.95 331.064ZM36.6641 352.101C26.9111 363.228 20.5673 376.376 20.6875 391.312C20.6931 392.055 20.6988 392.798 20.7046 393.563C21.0245 408.152 27.0794 420.987 37.1719 431.457C49.0806 442.165 62.8705 447.051 78.7188 446.379C90.1483 445.555 99.8502 441.911 109 435C110 434.255 110 434.255 111.02 433.496C118.891 427.203 123.314 419.253 127 410C127.322 409.232 127.645 408.463 127.977 407.672C132.812 394.384 130.41 380.165 124.938 367.551C121.72 361.15 116.99 356.077 112 351C111.423 350.409 110.845 349.819 110.25 349.211C105.507 344.765 100.002 342.357 94 340C92.8282 339.516 92.8282 339.516 91.6328 339.023C73.3332 332.431 50.4435 338.686 36.6641 352.101Z" fill="white"/>
<path d="M233.563 450.609C237.26 450.626 240.956 450.616 244.653 450.598C318.724 450.307 318.724 450.307 334 463C334.992 464.906 334.992 464.906 335 467C328.705 474.469 317.871 475.708 308.688 477.125C307.648 477.29 306.609 477.456 305.539 477.626C259.957 484.635 185.704 492.748 144 470C142 468 142 468 141.875 465.375C141.916 464.591 141.957 463.807 142 463C166.699 447.508 205.253 450.477 233.563 450.609Z" fill="#504F4E"/>
<path d="M131.187 88.8072C132.484 88.7831 132.484 88.7831 133.807 88.7585C137.763 88.7141 141.719 88.673 145.675 88.65C147.762 88.6334 149.848 88.6061 151.934 88.568C154.942 88.5132 157.949 88.4913 160.957 88.4767C161.887 88.454 162.818 88.4313 163.776 88.408C168.379 88.423 170.34 88.4817 174.065 91.4078C177.408 95.8865 177.192 99.5215 177.238 104.953C177.246 105.846 177.255 106.739 177.263 107.659C177.277 109.552 177.287 111.445 177.295 113.338C177.312 116.225 177.356 119.11 177.4 121.996C177.411 123.836 177.419 125.676 177.426 127.516C177.443 128.375 177.461 129.235 177.479 130.121C177.459 135.703 176.644 138.712 173 143C170.71 144.145 169.361 144.15 166.813 144.193C165.949 144.209 165.084 144.225 164.193 144.242C160.237 144.286 156.281 144.327 152.325 144.35C150.239 144.367 148.152 144.394 146.066 144.432C143.058 144.487 140.052 144.509 137.043 144.524C136.113 144.546 135.182 144.569 134.224 144.592C129.621 144.577 127.66 144.518 123.935 141.592C120.592 137.114 120.808 133.479 120.762 128.047C120.754 127.154 120.746 126.261 120.737 125.341C120.723 123.448 120.713 121.555 120.705 119.662C120.688 116.775 120.644 113.89 120.6 111.004C120.59 109.164 120.581 107.324 120.574 105.484C120.557 104.625 120.539 103.765 120.521 102.88C120.541 97.2972 121.356 94.2886 125 90.0001C127.29 88.8551 128.639 88.8502 131.187 88.8072Z" fill="#446AC4"/>
<path d="M131.095 238.839C132.362 238.825 132.362 238.825 133.654 238.81C135.026 238.803 135.026 238.803 136.426 238.797C137.835 238.788 137.835 238.788 139.274 238.78C141.265 238.77 143.256 238.764 145.248 238.76C148.29 238.75 151.331 238.719 154.373 238.688C156.307 238.681 158.242 238.676 160.176 238.672C161.084 238.66 161.993 238.647 162.929 238.635C167.729 238.651 171.194 238.727 175 242C176.671 244.792 177.255 246.885 177.291 250.123C177.303 250.924 177.316 251.725 177.329 252.55C177.331 253.408 177.334 254.265 177.336 255.148C177.343 256.039 177.349 256.929 177.356 257.846C177.366 259.727 177.371 261.608 177.371 263.489C177.375 266.358 177.411 269.225 177.449 272.094C177.455 273.925 177.459 275.755 177.461 277.586C177.475 278.439 177.49 279.293 177.505 280.172C177.462 285.727 176.619 288.728 173 293C170.706 294.147 169.366 294.144 166.813 294.177C165.516 294.196 165.516 294.196 164.193 294.216C163.257 294.223 162.32 294.231 161.356 294.238C160.394 294.246 159.432 294.254 158.441 294.263C156.402 294.277 154.364 294.287 152.325 294.295C149.21 294.312 146.097 294.356 142.982 294.4C141.003 294.411 139.023 294.419 137.043 294.426C135.647 294.452 135.647 294.452 134.224 294.479C129.995 294.465 127.626 294.376 123.935 292.161C121.291 289.208 120.877 286.815 120.823 282.991C120.81 282.19 120.797 281.389 120.784 280.563C120.777 279.7 120.769 278.838 120.762 277.949C120.754 277.058 120.746 276.166 120.737 275.248C120.724 273.36 120.713 271.473 120.705 269.586C120.688 266.709 120.644 263.832 120.6 260.955C120.59 259.12 120.581 257.285 120.574 255.449C120.557 254.593 120.539 253.736 120.521 252.854C120.541 247.281 121.365 244.282 125 240C127.276 238.862 128.566 238.862 131.095 238.839Z" fill="#446BC4"/>
<path d="M131.095 163.839C132.362 163.825 132.362 163.825 133.654 163.81C135.026 163.803 135.026 163.803 136.426 163.797C137.835 163.788 137.835 163.788 139.274 163.78C141.265 163.77 143.256 163.764 145.248 163.76C148.29 163.75 151.331 163.719 154.373 163.688C156.307 163.681 158.242 163.676 160.176 163.672C161.084 163.66 161.993 163.647 162.929 163.635C167.729 163.651 171.194 163.727 175 167C176.671 169.792 177.255 171.885 177.291 175.123C177.303 175.924 177.316 176.725 177.329 177.55C177.331 178.408 177.334 179.265 177.336 180.148C177.343 181.039 177.349 181.929 177.356 182.846C177.366 184.727 177.371 186.608 177.371 188.489C177.375 191.358 177.411 194.225 177.449 197.094C177.455 198.925 177.459 200.755 177.461 202.586C177.475 203.439 177.49 204.293 177.505 205.172C177.462 210.727 176.619 213.728 173 218C170.71 219.145 169.361 219.15 166.813 219.193C165.949 219.209 165.084 219.225 164.193 219.242C160.237 219.286 156.281 219.327 152.325 219.35C150.239 219.367 148.152 219.394 146.066 219.432C143.058 219.487 140.052 219.509 137.043 219.523C136.113 219.546 135.182 219.569 134.224 219.592C129.621 219.577 127.66 219.518 123.935 216.592C120.592 212.114 120.808 208.479 120.762 203.047C120.754 202.154 120.746 201.261 120.737 200.341C120.723 198.448 120.713 196.555 120.705 194.662C120.688 191.775 120.644 188.89 120.6 186.004C120.59 184.164 120.581 182.324 120.574 180.484C120.557 179.625 120.539 178.765 120.521 177.88C120.541 172.297 121.356 169.289 125 165C127.276 163.862 128.566 163.862 131.095 163.839Z" fill="#446AC4"/>
<path d="M464 59C474.059 66.857 481.084 77.1189 483 90C484.013 105.61 480.665 116.558 471.75 129.188C463.851 137.266 454.828 141.293 444 144C439.38 144 434.76 144 430 144C430 204.39 430 264.78 430 327C429.67 327 429.34 327 429 327C429 266.28 429 205.56 429 143C426.03 142.67 423.06 142.34 420 142C408.374 137.52 399.61 129.903 393.777 118.945C393 117 393 117 393 114C393.784 114.268 394.567 114.536 395.375 114.812C414.273 121.003 431.646 123.209 450 114C459.762 108.82 466.345 101.455 470 91C472.469 82.8703 471.894 74.909 468.062 67.375C467.045 65.5812 466.025 63.7892 465 62C464.505 60.515 464.505 60.515 464 59Z" fill="#2D5799"/>
<path d="M21.9999 378C24.7152 380.715 24.8004 383.072 25.6249 386.812C29.218 401.344 38.3248 413.497 51.0861 421.333C56.994 424.773 62.9276 427.236 69.5741 428.918C72.6958 430.31 73.5248 431.986 74.9999 435C75.405 434.516 75.8101 434.033 76.2274 433.535C78.4058 431.649 79.5127 431.58 82.3593 431.445C83.2209 431.391 84.0826 431.336 84.9703 431.28C85.8876 431.229 86.8048 431.178 87.7499 431.125C99.5734 430.247 109.414 427.476 120 422C114.925 432.634 105.038 439.182 94.3514 443.461C79.3583 447.968 64.5222 447.542 50.328 440.715C37.445 433.533 27.4407 422.709 23.0624 408.438C22.6871 406.964 22.3307 405.485 21.9999 404C21.7419 403.066 21.7419 403.066 21.4786 402.113C20.6908 398.636 20.8567 395.11 20.8749 391.562C20.871 390.812 20.8671 390.061 20.8632 389.287C20.87 385.391 21.0469 381.805 21.9999 378Z" fill="white"/>
<path d="M455 328C469.301 327.411 469.301 327.411 476 331C482.883 337.584 483.369 345.391 484.109 354.406C484.193 355.409 484.278 356.413 484.364 357.447C485.162 367.766 485.303 378.061 485.261 388.407C485.25 391.499 485.261 394.591 485.273 397.684C485.282 407.997 484.991 418.248 484.172 428.531C484.103 429.466 484.034 430.402 483.962 431.366C483.338 438.327 482.205 444.399 477.562 449.875C473.014 453.647 469.058 454.457 463.25 455.062C462.498 455.145 461.747 455.227 460.973 455.312C447.639 456.722 434.398 457.149 421 457C421 456.67 421 456.34 421 456C422.079 455.93 423.158 455.86 424.27 455.788C428.304 455.522 432.336 455.233 436.369 454.938C438.108 454.814 439.848 454.695 441.588 454.583C444.102 454.421 446.613 454.236 449.125 454.047C449.893 454.002 450.661 453.957 451.452 453.91C457.687 453.407 463.231 451.584 467.875 447.25C480.145 422.709 474.413 378.885 472.188 352.187C472.118 351.331 472.048 350.475 471.976 349.593C471.335 343.417 470.129 337.311 465.812 332.625C462.232 330.556 459.048 329.823 455 329C455 328.67 455 328.34 455 328Z" fill="#717DC4"/>
<path d="M56 327C53.7832 329.217 51.509 330.247 48.6936 331.561C30.7043 340.013 19.0845 352.939 12.0352 371.547C6.61246 389.239 9.56123 407.595 17.75 423.812C26.1436 437.986 38.2148 448.738 54 454C58.9511 455.257 63.9619 456.164 69 457C69 457.33 69 457.66 69 458C52.3157 458.998 36.9946 454.086 24.2292 443.141C10.778 431.006 1.64986 415.416 0.679682 397.098C0.0953113 378.638 3.90934 362.315 16.0625 347.812C26.0972 337.352 40.9472 326.277 56 327Z" fill="white"/>
<path d="M234.427 364.664C236.5 364.687 238.572 364.684 240.645 364.678C275.749 364.749 275.749 364.749 284 373C256.84 383.491 221.023 384.409 194 373C195 371 195 371 198.562 369.562C210.388 365.886 222.114 364.514 234.427 364.664Z" fill="#3A3A3A"/>
<path d="M175 189C175.33 189 175.66 189 176 189C176.145 193.062 176.234 197.124 176.312 201.188C176.354 202.338 176.396 203.488 176.439 204.674C176.456 205.786 176.472 206.897 176.488 208.043C176.514 209.064 176.541 210.085 176.568 211.137C175.75 215.259 174.433 216.591 171 219C167.681 219.717 164.448 219.701 161.062 219.664C160.105 219.669 159.147 219.674 158.16 219.679C156.14 219.682 154.119 219.673 152.099 219.652C149.01 219.625 145.925 219.652 142.836 219.684C140.87 219.68 138.904 219.674 136.938 219.664C136.017 219.674 135.096 219.684 134.147 219.695C129.636 219.612 127.617 219.469 123.93 216.666C121.774 213.687 121.254 211.637 121 208C122.775 207.927 122.775 207.927 124.586 207.852C143.812 206.98 161.22 203.641 175 189Z" fill="#255299"/>
<path d="M175 264C175.33 264 175.66 264 176 264C176.145 268.062 176.234 272.124 176.312 276.188C176.354 277.338 176.396 278.488 176.439 279.674C176.456 280.786 176.472 281.897 176.488 283.043C176.514 284.064 176.541 285.085 176.568 286.137C175.75 290.259 174.434 291.592 171 294C167.68 294.707 164.447 294.678 161.062 294.629C159.626 294.633 159.626 294.633 158.16 294.636C156.14 294.635 154.119 294.622 152.099 294.597C149.01 294.563 145.925 294.576 142.836 294.596C140.87 294.589 138.904 294.579 136.938 294.566C136.017 294.571 135.096 294.576 134.147 294.581C129.986 294.505 127.579 294.34 123.93 292.199C121.347 289.256 121.222 286.84 121 283C121.852 282.986 121.852 282.986 122.721 282.972C140.686 282.601 158.859 280.563 172.25 267.062C172.771 266.476 173.292 265.889 173.828 265.285C174.215 264.861 174.602 264.437 175 264Z" fill="#255299"/>
<path d="M176 114C176.146 118.062 176.234 122.124 176.313 126.188C176.354 127.338 176.396 128.488 176.44 129.674C176.456 130.786 176.472 131.897 176.488 133.043C176.515 134.064 176.541 135.085 176.568 136.137C175.75 140.259 174.433 141.591 171 144C167.682 144.717 164.448 144.701 161.063 144.664C160.105 144.669 159.147 144.674 158.161 144.679C156.14 144.682 154.119 144.673 152.099 144.652C149.01 144.625 145.925 144.652 142.836 144.684C140.87 144.68 138.904 144.674 136.938 144.664C136.017 144.674 135.096 144.684 134.147 144.695C129.628 144.612 127.607 144.457 123.899 141.666C121.645 138.501 121.558 136.803 122 133C123.649 132.927 123.649 132.927 125.332 132.852C143.858 131.959 159.77 129.013 173.496 115.469C175 114 175 114 176 114Z" fill="#255299"/>
<path d="M460 78C455.785 91.8812 445.38 102.802 434.25 111.688C433.719 112.122 433.189 112.556 432.642 113.004C430.039 114.993 428.079 115.986 424.84 116.555C422 116 422 116 419.988 114.059C419.435 113.194 418.882 112.329 418.312 111.438C417.73 110.527 417.147 109.617 416.547 108.68C412 100.803 412 100.803 412 96C417.622 97.7889 417.622 97.7889 420.125 99.1875C422.625 100.271 423.457 99.9699 426 99C427.702 97.5423 429.341 96.01 430.938 94.4375C438.338 87.5314 449.375 78 460 78Z" fill="#F9FAFD"/>
<path d="M302.422 168.739C306.031 168.75 309.639 168.739 313.248 168.727C324.429 168.719 335.54 168.931 346.684 169.891C347.617 169.968 348.55 170.046 349.512 170.125C351.684 170.338 353.845 170.658 356 171C356.495 171.99 356.495 171.99 357 173C354.917 173.317 352.834 173.628 350.75 173.937C349.01 174.198 349.01 174.198 347.234 174.465C336.416 175.898 325.688 176.158 314.793 176.13C312.334 176.125 309.875 176.13 307.416 176.137C292.487 176.144 277.727 175.638 263 173C263.33 172.34 263.66 171.68 264 171C276.343 167.827 289.803 168.695 302.422 168.739Z" fill="#8E9EEB"/>
<path d="M306.737 243.684C310.362 243.687 313.985 243.664 317.609 243.639C331.035 243.604 343.829 244.332 357 247C357 247.33 357 247.66 357 248C354.772 248.317 352.542 248.629 350.312 248.937C348.45 249.198 348.45 249.198 346.551 249.465C334.707 250.935 322.915 251.2 311 251.187C310.188 251.188 309.375 251.188 308.538 251.189C295.928 251.181 283.513 250.662 271 249C269.486 248.81 267.971 248.621 266.457 248.433C265.316 248.29 264.175 248.147 263 248C273.791 240.806 294.311 243.662 306.737 243.684Z" fill="#8C9DEA"/>
<path d="M239.585 131.664C242.762 131.688 245.937 131.684 249.113 131.678C258.392 131.69 267.601 131.849 276.828 132.895C277.867 133.01 277.867 133.01 278.927 133.129C282.316 133.571 284.095 134.063 287 136C285.418 136.321 283.834 136.631 282.25 136.938C281.368 137.112 280.487 137.286 279.578 137.465C267.762 139.232 255.924 139.186 244.003 139.185C240.903 139.188 237.803 139.206 234.703 139.225C225.302 139.252 215.987 139.109 206.633 138.113C205.883 138.036 205.133 137.958 204.361 137.878C199.257 137.257 199.257 137.257 197 135C211.267 132.528 225.111 131.548 239.585 131.664Z" fill="#8D9EEB"/>
<path d="M304.476 93.7393C307.863 93.75 311.25 93.7394 314.637 93.7266C327.88 93.7194 340.856 94.3698 354 96.0001C354 96.6601 354 97.3201 354 98.0001C352.105 98.3195 350.209 98.6301 348.312 98.9376C347.257 99.1116 346.201 99.2856 345.113 99.4649C333.309 101.122 321.456 101.199 309.562 101.188C308.729 101.188 307.896 101.188 307.038 101.189C275.951 101.171 275.951 101.171 264 98.0001C264 97.3401 264 96.6801 264 96.0001C277.511 94.0871 290.841 93.6882 304.476 93.7393Z" fill="#8D9DEA"/>
<path d="M229.422 262.797C230.403 262.791 231.383 262.786 232.394 262.78C234.464 262.77 236.535 262.764 238.606 262.76C241.7 262.75 244.793 262.719 247.887 262.688C261.184 262.619 273.899 263.733 287 266C275.498 272.11 258.98 270.312 246.329 270.261C243.203 270.25 240.077 270.261 236.951 270.273C227.318 270.281 217.766 270.077 208.176 269.109C207.388 269.032 206.6 268.954 205.788 268.875C202.163 268.46 200.088 268.058 197 266C198.979 265.685 200.958 265.373 202.938 265.063C204.04 264.889 205.142 264.715 206.277 264.535C214.024 263.422 221.593 262.833 229.422 262.797Z" fill="#8D9DEA"/>
<path d="M243.125 281.812C244.194 281.812 244.194 281.812 245.284 281.811C259.67 281.821 273.773 282.906 288 285C287.67 285.66 287.34 286.32 287 287C274.071 290.445 259.712 289.303 246.485 289.261C242.509 289.25 238.534 289.261 234.559 289.273C206.594 289.29 206.594 289.29 198 287C197.67 286.34 197.34 285.68 197 285C199.186 284.681 201.374 284.37 203.562 284.062C204.781 283.888 205.999 283.714 207.254 283.535C219.166 282.072 231.137 281.798 243.125 281.812Z" fill="#8D9EEB"/>
<path d="M242.938 206.687C243.851 206.684 244.764 206.681 245.705 206.678C257.628 206.652 269.191 207.31 281 209C282.004 209.143 282.004 209.143 283.028 209.288C284.686 209.524 286.343 209.762 288 210C288 210.33 288 210.66 288 211C273.61 213.504 259.642 214.45 245.042 214.336C241.805 214.312 238.568 214.316 235.33 214.322C225.705 214.31 216.151 214.121 206.574 213.105C205.828 213.028 205.081 212.951 204.312 212.871C199.256 212.256 199.256 212.256 197 210C212.334 207.308 227.407 206.69 242.938 206.687Z" fill="#8C9DEA"/>
<path d="M241.901 187.815C244.797 187.813 247.692 187.794 250.588 187.775C279.715 187.685 279.715 187.685 287 192C285.105 192.319 283.209 192.63 281.312 192.938C280.257 193.112 279.201 193.286 278.113 193.465C266.169 195.13 254.189 195.186 242.154 195.185C239.269 195.187 236.385 195.206 233.5 195.225C224.718 195.252 216.03 195.104 207.297 194.113C206.247 193.997 206.247 193.997 205.176 193.878C201.754 193.436 199.929 192.953 197 191C198.895 190.681 200.791 190.37 202.688 190.063C203.743 189.888 204.799 189.714 205.887 189.535C217.855 187.866 229.84 187.814 241.901 187.815Z" fill="#8C9DEA"/>
<path d="M239.339 112.739C242.561 112.75 245.783 112.739 249.006 112.726C279.708 112.704 279.708 112.704 287 117C273.316 120.118 259.649 120.201 245.688 120.187C244.365 120.188 244.365 120.188 243.016 120.189C211.029 120.172 211.029 120.172 197 117C208.091 110.336 226.879 112.69 239.339 112.739Z" fill="#8C9DEA"/>
<path d="M336.375 262.75C337.257 262.729 338.138 262.709 339.047 262.687C345.493 262.65 350.938 263.836 357 266C352.54 270.46 345.365 270.25 339.386 270.278C338.495 270.269 337.605 270.259 336.688 270.25C335.764 270.245 334.841 270.239 333.889 270.234C316.999 269.999 316.999 269.999 313 266C320.31 262.573 328.453 262.796 336.375 262.75Z" fill="#8C9DEA"/>
<path d="M333.438 187.688C334.896 187.683 334.896 187.683 336.385 187.678C352.798 187.798 352.798 187.798 357 192C350.15 195.211 342.621 195.196 335.188 195.188C334.014 195.186 334.014 195.186 332.816 195.185C317.019 195.019 317.019 195.019 313 191C319.907 188.155 326.014 187.565 333.438 187.688Z" fill="#8C9DEA"/>
<path d="M333.188 112.688C334.714 112.69 334.714 112.69 336.272 112.692C343.574 112.785 350.087 113.502 357 116C350.698 120.202 343.665 120.358 336.312 120.313C335.443 120.311 334.573 120.31 333.677 120.309C326.456 120.202 319.925 119.123 313 117C318.158 111.842 326.39 112.652 333.188 112.688Z" fill="#8C9DEA"/>
<path d="M216.875 93.75C218.008 93.7423 219.141 93.7345 220.309 93.7266C226.836 93.7417 232.725 94.1397 239 96C239.495 96.99 239.495 96.99 240 98C227.68 101.988 209.075 104.037 197 98C197 97.34 197 96.68 197 96C203.588 93.5938 209.917 93.7028 216.875 93.75Z" fill="#8E9EEB"/>
<path d="M209.992 168.734C211.11 168.732 212.227 168.729 213.379 168.727C214.533 168.734 215.686 168.742 216.875 168.75C218.021 168.742 219.167 168.735 220.348 168.727C226.553 168.741 232.104 168.983 238 171C238.495 171.99 238.495 171.99 239 173C231.898 175.794 224.982 176.327 217.438 176.375C216.564 176.389 215.69 176.402 214.79 176.416C208.435 176.373 202.981 175.113 197 173C198 171 198 171 200.688 169.892C203.951 169.013 206.624 168.742 209.992 168.734Z" fill="#8D9EEB"/>
<path d="M216.312 243.75C217.947 243.738 217.947 243.738 219.615 243.727C226.04 243.742 231.821 244.182 238 246C238.495 246.99 238.495 246.99 239 248C226.052 252.737 209.933 252.786 197 248C198 246 198 246 200.293 244.891C205.644 243.605 210.83 243.712 216.312 243.75Z" fill="#8C9DEA"/>
<path d="M162 179C162.66 179.33 163.32 179.66 164 180C160.321 186.58 156.152 192.27 150.875 197.625C150.373 198.145 149.87 198.666 149.353 199.202C146.056 202.446 144.764 203.047 140 204C137.36 200.37 134.72 196.74 132 193C132.33 192.34 132.66 191.68 133 191C133.723 191.541 133.723 191.541 134.461 192.094C135.093 192.558 135.724 193.022 136.375 193.5C137.001 193.964 137.628 194.428 138.273 194.906C139.941 196.178 139.941 196.178 142 196C142.804 195.01 143.609 194.02 144.438 193C149.261 187.138 155.735 183.176 162 179Z" fill="#F3F6FB"/>
<path d="M162 104C162.66 104.33 163.32 104.66 164 105C158.676 114.394 152.08 122.947 143 129C141.047 128.941 141.047 128.941 139 128C137.078 125.715 137.078 125.715 135.25 122.938C134.636 122.018 134.023 121.099 133.391 120.152C132.932 119.442 132.473 118.732 132 118C132.33 117.34 132.66 116.68 133 116C133.723 116.541 133.723 116.541 134.461 117.094C135.093 117.558 135.724 118.022 136.375 118.5C137.001 118.964 137.628 119.428 138.273 119.906C139.941 121.178 139.941 121.178 142 121C143.176 119.546 143.176 119.546 144.375 118.062C148.953 112.494 155.539 107.23 162 104Z" fill="#F3F6FB"/>
<path d="M163 255C159.777 263.905 152.368 272.168 145 278C143.35 278.33 141.7 278.66 140 279C137.36 275.37 134.72 271.74 132 268C132.33 267.34 132.66 266.68 133 266C133.723 266.541 133.723 266.541 134.461 267.094C135.093 267.558 135.724 268.022 136.375 268.5C137.001 268.964 137.628 269.428 138.273 269.906C139.941 271.178 139.941 271.178 142 271C143.104 269.62 144.207 268.241 145.309 266.859C149.415 262.345 156.48 255 163 255Z" fill="#F5F7FB"/>
<path d="M116 385C118.062 386.562 118.062 386.562 119 389C118.673 395.327 118.673 395.327 116 398C109.04 398.552 109.04 398.552 106 396.937C104.416 393.868 104.637 391.383 105 388C107.15 383.835 111.871 384.245 116 385Z" fill="#FEFBF6"/>
<path d="M38.9375 384.688C41.4844 384.766 42.757 384.863 45 386.125C46.4855 388.91 46.3805 390.893 46 394C45 396.375 45 396.375 43 398C40.2244 398.567 37.7763 398.56 35 398C32.9375 396.438 32.9375 396.438 32 394C32.3093 388.019 32.4866 385.199 38.9375 384.688Z" fill="#FEFBF7"/>
<path d="M21.9446 405V401.295L35.0181 383.373H21.9577V378.091H43.2433V381.796L30.1697 399.718H43.2301V405H21.9446ZM47.2211 378.091H55.2755L62.1079 394.751H62.4232L69.2556 378.091H77.3099V405H70.9768V388.471H70.7535L64.289 404.829H60.2421L53.7776 388.379H53.5542V405H47.2211V378.091ZM87.818 405L79.987 378.091H87.1742L91.2342 395.724H91.4576L96.0957 378.091H101.956L106.594 395.763H106.817L110.89 378.091H118.064L110.247 405H103.979L99.1309 388.681H98.9206L94.0723 405H87.818Z" fill="#2C44C8"/>
</svg>
