<svg width="512" height="482" viewBox="0 0 512 482" fill="none" xmlns="http://www.w3.org/2000/svg">
<path d="M468.587 27.3139C488.263 44.2063 501.954 64.938 509 89.9999C509.481 91.7073 509.481 91.7073 509.973 93.4492C517.022 123.779 511.376 156.201 496 183C489.119 193.92 489.119 193.92 484.899 198.063C482.163 202.295 482.452 205.888 482.508 210.828C482.503 211.825 482.499 212.822 482.494 213.849C482.483 217.194 482.5 220.538 482.518 223.883C482.515 226.28 482.511 228.677 482.506 231.073C482.496 236.911 482.504 242.749 482.519 248.586C482.536 255.391 482.526 262.196 482.514 269C482.492 281.15 482.485 293.299 482.491 305.448C482.491 306.539 482.491 306.539 482.492 307.651C482.494 313.546 482.498 319.441 482.501 325.337C482.504 330.481 482.507 335.625 482.509 340.769C482.51 341.494 482.51 342.218 482.51 342.964C482.515 355.061 482.504 367.158 482.483 379.255C482.471 386.042 482.468 392.83 482.486 399.617C482.502 406.004 482.501 412.391 482.486 418.779C482.484 421.119 482.488 423.459 482.5 425.799C482.516 429.003 482.507 432.206 482.492 435.41C482.503 436.327 482.513 437.245 482.524 438.191C482.404 449.855 477.608 459.341 470 468C461.583 475.918 451.544 481.244 439.858 481.257C439.159 481.261 438.46 481.264 437.739 481.268C435.397 481.277 433.054 481.272 430.711 481.267C429.015 481.271 427.318 481.276 425.621 481.281C420.958 481.293 416.296 481.293 411.633 481.291C406.604 481.29 401.576 481.301 396.547 481.311C386.694 481.327 376.841 481.333 366.988 481.334C358.979 481.335 350.969 481.339 342.96 481.345C320.252 481.363 297.544 481.372 274.836 481.371C273.612 481.371 272.388 481.371 271.126 481.371C269.9 481.37 268.675 481.37 267.411 481.37C247.548 481.369 227.684 481.389 207.82 481.417C187.424 481.446 167.028 481.459 146.633 481.458C135.182 481.457 123.731 481.462 112.28 481.484C102.53 481.502 92.7798 481.507 83.0295 481.493C78.056 481.486 73.0827 481.486 68.1092 481.504C63.5524 481.519 58.9959 481.517 54.4391 481.499C52.7944 481.496 51.1497 481.5 49.505 481.511C34.9813 481.603 24.1575 478.804 13 469C8.27782 463.98 4.60539 458.384 2 452C1.65852 451.209 1.31704 450.417 0.96521 449.602C-0.402775 444.497 -0.282201 439.607 -0.267426 434.343C-0.271957 433.161 -0.27649 431.98 -0.281158 430.762C-0.291618 427.491 -0.293132 424.219 -0.290771 420.947C-0.290363 417.415 -0.301403 413.884 -0.310883 410.352C-0.327484 403.435 -0.332991 396.518 -0.334106 389.6C-0.335057 383.976 -0.339183 378.351 -0.34552 372.726C-0.363131 356.77 -0.37235 340.813 -0.37085 324.856C-0.37077 323.996 -0.370688 323.136 -0.370605 322.25C-0.370524 321.389 -0.370446 320.528 -0.370361 319.641C-0.369549 305.694 -0.388663 291.747 -0.41687 277.8C-0.445623 263.47 -0.459429 249.14 -0.457703 234.81C-0.457039 226.769 -0.462479 218.728 -0.484039 210.686C-0.502283 203.838 -0.506594 196.99 -0.493042 190.142C-0.486528 186.651 -0.486344 183.16 -0.503754 179.669C-0.519216 175.877 -0.509874 172.085 -0.494476 168.292C-0.504763 167.2 -0.515036 166.107 -0.525635 164.982C-0.415965 152.72 3.949 143.162 12 134C17.0201 129.278 22.6162 125.605 29 123C29.8312 122.658 30.6624 122.316 31.5188 121.963C35.9985 120.724 40.0938 120.73 44.719 120.759C45.6919 120.758 46.6648 120.756 47.6672 120.754C50.9239 120.751 54.1804 120.762 57.437 120.773C59.7728 120.773 62.1087 120.773 64.4445 120.772C70.7849 120.771 77.1252 120.783 83.4655 120.797C89.4206 120.808 95.3757 120.81 101.331 120.812C113.124 120.817 124.917 120.83 136.71 120.849C148.164 120.867 159.618 120.882 171.072 120.89C172.132 120.891 172.132 120.891 173.213 120.892C176.756 120.894 180.3 120.897 183.844 120.899C213.229 120.92 242.615 120.955 272 121C271.995 119.968 271.99 118.936 271.984 117.872C271.98 116.506 271.976 115.139 271.972 113.773C271.968 113.094 271.965 112.415 271.961 111.716C271.897 82.341 287.894 54.3634 308 33.9999C322.563 19.414 341.25 9.55281 361 3.99994C362.138 3.67897 363.276 3.35799 364.449 3.02729C400.371 -5.32221 440.202 3.81111 468.587 27.3139Z" fill="#C7C5CC"/>
<path d="M43.5801 120.759C44.4284 120.758 45.2768 120.756 46.1509 120.754C48.9951 120.751 51.839 120.762 54.6831 120.773C56.7564 120.774 58.8297 120.773 60.903 120.772C66.4532 120.772 72.0033 120.783 77.5535 120.797C82.7623 120.809 87.9711 120.809 93.1799 120.811C108.412 120.821 123.643 120.849 138.875 120.875C189.922 120.937 189.922 120.937 242 121C242 239.8 242 358.6 242 481C191.108 481.124 191.108 481.124 139.188 481.25C128.481 481.286 117.774 481.323 106.743 481.36C93.653 481.378 93.653 481.378 87.5219 481.382C83.2465 481.385 78.9713 481.4 74.6959 481.422C69.2354 481.45 63.7751 481.458 58.3145 481.452C56.3149 481.453 54.3152 481.461 52.3157 481.477C36.6189 481.593 25.221 479.739 13 469C8.27783 463.98 4.6054 458.384 2.00002 452C1.65853 451.209 1.31705 450.418 0.965218 449.602C-0.402767 444.497 -0.282186 439.607 -0.26741 434.343C-0.271941 433.161 -0.276471 431.98 -0.281139 430.762C-0.291599 427.491 -0.293113 424.219 -0.290752 420.947C-0.290344 417.416 -0.301388 413.884 -0.310867 410.352C-0.327469 403.435 -0.332976 396.518 -0.334091 389.601C-0.335042 383.976 -0.339156 378.351 -0.345493 372.726C-0.363105 356.77 -0.372331 340.813 -0.370831 324.856C-0.370751 323.996 -0.370673 323.136 -0.37059 322.25C-0.370508 321.389 -0.370426 320.528 -0.370342 319.641C-0.36953 305.694 -0.388659 291.747 -0.416866 277.8C-0.445619 263.47 -0.459406 249.14 -0.45768 234.81C-0.457017 226.769 -0.462476 218.728 -0.484035 210.686C-0.502279 203.838 -0.506568 196.99 -0.493015 190.142C-0.486501 186.651 -0.486313 183.16 -0.503723 179.669C-0.519186 175.877 -0.509859 172.085 -0.494461 168.292C-0.504748 167.2 -0.515036 166.107 -0.525635 164.982C-0.415965 152.72 3.94901 143.162 12 134C20.9769 125.556 31.1925 120.668 43.5801 120.759Z" fill="#E4E4E5"/>
<path d="M468.587 27.3139C488.263 44.2063 501.954 64.938 509 89.9999C509.482 91.7073 509.482 91.7073 509.973 93.4492C517.022 123.779 511.376 156.201 496 183C491.248 190.54 486.229 198.475 479.375 204.25C477.13 206.158 474.925 208.071 472.785 210.098C448.875 232.655 418.366 241.828 386 241C384.791 240.982 383.582 240.964 382.336 240.945C352.443 239.755 323.273 223.815 302.981 202.383C279.34 176.236 270.675 143.795 271.836 109.173C273.448 77.9979 290.657 50.2695 312.813 29.3124C326.58 17.2848 343.488 8.92352 361 3.99994C362.138 3.67897 363.277 3.35799 364.449 3.02729C400.372 -5.32221 440.202 3.81111 468.587 27.3139Z" fill="#2F41A3"/>
<path d="M392 1C427.558 1 456.333 14.3697 481.434 39.4297C494.738 53.4945 503.793 71.4785 509 90C509.321 91.1382 509.642 92.2765 509.973 93.4492C517.022 123.779 511.376 156.201 496 183C491.248 190.541 486.229 198.475 479.375 204.25C477.13 206.158 474.925 208.071 472.785 210.098C453.159 228.613 425.41 241.234 398.141 241.043C396.986 241.037 395.831 241.031 394.642 241.024C393.77 241.016 392.898 241.008 392 241C390.285 228.201 389.143 215.398 388.5 202.5C388.453 201.549 388.405 200.599 388.356 199.619C387.276 175.043 389.152 155.831 406.197 137.155C416.218 126.553 427.514 116.896 439.123 108.073C439.697 107.634 440.271 107.195 440.863 106.743C442.403 105.576 443.958 104.429 445.513 103.282C448.82 100.248 450.616 97.0775 451.434 92.6562C451.443 87.3115 450.726 84.1179 447 80C442.989 77.2013 439.235 76.3087 434.409 76.5468C427.282 77.8873 421.355 85.3815 416.473 90.3672C415.798 91.0468 415.124 91.7264 414.429 92.4265C412.302 94.5713 410.182 96.7226 408.063 98.875C405.917 101.048 403.771 103.219 401.621 105.388C400.289 106.732 398.961 108.078 397.635 109.427C396.108 110.97 394.557 112.488 393 114C392.67 114 392.34 114 392 114C392 76.71 392 39.42 392 1Z" fill="#2C44C8"/>
<path d="M149 251C156.857 257.421 163.183 266.917 165 277C166.268 292.677 163.327 304.812 153.34 317.031C146.613 324.283 138.703 328.435 129 330C129 330.66 129 331.32 129 332C130.155 332 131.31 332 132.5 332C144.638 333.381 155.807 341.442 164 350C164.632 350.601 165.263 351.202 165.914 351.82C177.567 363.679 180.352 379.702 180.312 395.625C180.329 396.922 180.345 398.219 180.361 399.555C180.362 400.808 180.363 402.061 180.363 403.352C180.366 404.484 180.369 405.617 180.372 406.784C179.802 411.712 178.127 414.958 174.5 418.313C171.255 420.503 168.794 421.124 164.966 421.147C163.738 421.158 163.738 421.158 162.485 421.169C161.591 421.172 160.696 421.174 159.774 421.177C158.357 421.187 158.357 421.187 156.911 421.197C153.779 421.217 150.647 421.228 147.516 421.238C146.446 421.242 145.376 421.247 144.274 421.251C138.612 421.272 132.95 421.286 127.288 421.295C121.443 421.306 115.598 421.341 109.752 421.38C105.255 421.407 100.758 421.415 96.2611 421.419C94.1066 421.423 91.9521 421.435 89.7976 421.454C86.7791 421.478 83.7617 421.477 80.7431 421.47C79.4134 421.489 79.4134 421.489 78.0568 421.509C72.2044 421.46 68.7948 420.411 64 417C59.5982 411.35 59.3929 406.509 59.5625 399.5C59.5866 398.038 59.5866 398.038 59.6113 396.546C60.1351 377.183 65.7852 360.561 80 347C80.6355 346.357 81.271 345.714 81.9258 345.051C89.8427 337.495 100.493 332.268 111.5 331.875C112.325 331.916 113.15 331.958 114 332C114 331.34 114 330.68 114 330C112.742 329.959 111.484 329.918 110.187 329.875C100.302 328.742 91.547 322.211 85 315C76.3416 302.931 73.3049 290.834 75.4258 276.027C78.1947 264.221 85.3802 255.147 95 248C112.388 237.241 132.78 238.656 149 251Z" fill="#1689FB"/>
<path d="M120 241C120 300.4 120 359.8 120 421C71 421 71 421 64 417C59.5982 411.35 59.3929 406.509 59.5625 399.5C59.5866 398.038 59.5866 398.038 59.6113 396.546C60.1351 377.183 65.7852 360.561 80 347C80.6355 346.357 81.271 345.714 81.9258 345.051C89.8427 337.494 100.493 332.268 111.5 331.875C112.325 331.916 113.15 331.957 114 332C114 331.34 114 330.68 114 330C112.742 329.959 111.484 329.918 110.187 329.875C100.302 328.742 91.547 322.211 85 315C76.3416 302.931 73.3049 290.834 75.4258 276.027C78.1947 264.221 85.3802 255.147 95 248C103.169 242.945 110.351 241 120 241Z" fill="#22AAF6"/>
<path d="M441 76.0001C444.958 77.3709 447.62 79.5814 450.438 82.6876C452.419 86.8887 452.993 90.4379 452 95.0001C449.346 100.182 446.379 104.057 442.257 108.131C441.412 108.984 441.412 108.984 440.55 109.854C438.702 111.715 436.844 113.565 434.984 115.414C433.686 116.714 432.388 118.015 431.091 119.317C428.375 122.036 425.655 124.751 422.93 127.461C419.452 130.922 415.988 134.396 412.528 137.874C409.851 140.561 407.168 143.242 404.482 145.92C403.202 147.197 401.925 148.477 400.65 149.759C398.861 151.556 397.062 153.343 395.261 155.127C394.744 155.65 394.227 156.173 393.695 156.711C388.87 161.456 383.826 165.507 377.062 166.688C366.962 165.879 358.746 155.208 352.06 148.451C350.25 146.625 348.425 144.816 346.598 143.008C345.424 141.832 344.25 140.655 343.078 139.477C342.542 138.946 342.005 138.416 341.452 137.869C336.846 133.178 331.807 127.713 331.438 120.875C332.252 115.263 334.425 112.388 338.625 108.688C342.06 106.247 344.456 105.529 348.739 105.597C356.693 107.014 363.211 114.828 368.562 120.375C369.646 121.479 369.646 121.479 370.752 122.606C372.508 124.397 374.258 126.195 376 128C379.636 126.468 381.931 124.3 384.689 121.506C385.614 120.575 386.538 119.644 387.491 118.685C387.98 118.187 388.47 117.689 388.974 117.176C390.513 115.612 392.058 114.054 393.604 112.498C397.444 108.631 401.273 104.754 405.102 100.877C408.34 97.5998 411.582 94.3269 414.829 91.0594C416.347 89.5285 417.859 87.9917 419.37 86.4545C420.298 85.5202 421.226 84.586 422.181 83.6233C422.993 82.8011 423.805 81.9788 424.641 81.1317C429.898 76.3811 434.052 74.9394 441 76.0001Z" fill="#A2D8F3"/>
<path d="M295.434 390.482C296.672 390.475 297.91 390.468 299.186 390.461C302.566 390.447 305.946 390.45 309.326 390.463C312.873 390.473 316.42 390.463 319.967 390.457C325.921 390.45 331.876 390.459 337.831 390.479C344.704 390.5 351.576 390.493 358.449 390.471C364.363 390.453 370.276 390.451 376.19 390.461C379.716 390.467 383.242 390.468 386.769 390.455C390.702 390.441 394.634 390.46 398.566 390.482C400.308 390.47 400.308 390.47 402.084 390.458C408.614 390.526 412.689 391.101 418 395C420.96 398.116 422.244 401.739 422.5 406C422.244 410.261 420.96 413.884 418 417C411.695 421.628 406.225 421.571 398.566 421.518C397.328 421.525 396.09 421.532 394.814 421.539C391.434 421.553 388.054 421.55 384.674 421.537C381.127 421.527 377.58 421.537 374.033 421.543C368.079 421.55 362.124 421.541 356.169 421.522C349.296 421.5 342.424 421.507 335.551 421.529C329.637 421.547 323.724 421.55 317.81 421.539C314.284 421.533 310.758 421.532 307.231 421.545C303.298 421.559 299.366 421.54 295.434 421.518C293.692 421.53 293.692 421.53 291.916 421.542C285.386 421.474 281.311 420.899 276 417C273.04 413.884 271.756 410.261 271.5 406C271.756 401.739 273.04 398.116 276 395C282.305 390.372 287.775 390.429 295.434 390.482Z" fill="#8B8892"/>
<path d="M295.434 330.482C296.672 330.475 297.91 330.468 299.186 330.461C302.566 330.447 305.946 330.45 309.326 330.463C312.873 330.473 316.42 330.463 319.967 330.457C325.921 330.45 331.876 330.459 337.831 330.479C344.704 330.5 351.576 330.493 358.449 330.471C364.363 330.453 370.276 330.451 376.19 330.461C379.716 330.467 383.242 330.468 386.769 330.455C390.702 330.441 394.634 330.46 398.566 330.482C400.308 330.47 400.308 330.47 402.084 330.458C408.614 330.526 412.689 331.101 418 335C420.96 338.116 422.244 341.739 422.5 346C422.244 350.261 420.96 353.884 418 357C411.695 361.628 406.225 361.571 398.566 361.518C397.328 361.525 396.09 361.532 394.814 361.539C391.434 361.553 388.054 361.55 384.674 361.537C381.127 361.527 377.58 361.537 374.033 361.543C368.079 361.55 362.124 361.541 356.169 361.522C349.296 361.5 342.424 361.507 335.551 361.529C329.637 361.547 323.724 361.55 317.81 361.539C314.284 361.533 310.758 361.532 307.231 361.545C303.298 361.559 299.366 361.54 295.434 361.518C293.692 361.53 293.692 361.53 291.916 361.542C285.386 361.474 281.311 360.899 276 357C273.04 353.884 271.756 350.261 271.5 346C271.756 341.739 273.04 338.116 276 335C282.305 330.372 287.775 330.429 295.434 330.482Z" fill="#8B8892"/>
<path d="M351 106C357.889 109.478 363.262 114.881 368.562 120.375C369.285 121.111 370.008 121.847 370.752 122.605C372.508 124.397 374.258 126.195 376 128C379.844 126.225 382.192 123.948 385.125 120.875C386.712 119.213 388.329 117.578 390 116C390.66 116 391.32 116 392 116C392.223 121.853 392.386 127.704 392.494 133.56C392.54 135.549 392.601 137.539 392.679 139.528C393.313 156.092 393.313 156.092 390.027 160.867C387.733 162.665 385.69 163.902 383 165C382.01 165.495 382.01 165.495 381 166C374.78 166.764 371.776 165.686 366.709 162.155C361.46 157.979 356.773 153.214 352.06 148.451C350.25 146.625 348.425 144.816 346.598 143.008C345.424 141.832 344.25 140.655 343.078 139.477C342.542 138.946 342.005 138.416 341.452 137.869C336.846 133.178 331.807 127.713 331.438 120.875C332.252 115.263 334.425 112.387 338.625 108.687C342.668 105.815 346.101 105.128 351 106Z" fill="#B4DFF3"/>
<path d="M412.922 271.66C417.572 273.956 420.315 277.093 422 282C422.964 287.051 422.13 291.156 419.324 295.457C416.492 298.757 413.281 300.565 409.016 301.379C403.892 301.687 399.899 300.346 396 297C392.654 293.101 391.313 289.108 391.621 283.984C392.436 279.719 394.243 276.508 397.543 273.676C402.441 270.481 407.364 269.751 412.922 271.66Z" fill="#8B8892"/>
<path d="M352.922 271.66C357.572 273.956 360.315 277.093 362 282C362.964 287.051 362.13 291.156 359.324 295.457C356.492 298.757 353.281 300.565 349.016 301.379C343.892 301.687 339.899 300.346 336 297C332.654 293.101 331.313 289.108 331.621 283.984C332.436 279.719 334.243 276.508 337.543 273.676C342.441 270.481 347.364 269.751 352.922 271.66Z" fill="#8B8892"/>
<path d="M292.922 271.66C297.572 273.956 300.315 277.093 302 282C302.964 287.051 302.13 291.156 299.324 295.457C296.492 298.757 293.281 300.565 289.016 301.379C283.892 301.687 279.899 300.346 276 297C272.654 293.101 271.313 289.108 271.621 283.984C272.436 279.719 274.243 276.508 277.543 273.676C282.441 270.481 287.364 269.751 292.922 271.66Z" fill="#8B8892"/>
</svg>
