<svg width="512" height="512" viewBox="0 0 512 512" fill="none" xmlns="http://www.w3.org/2000/svg">
<path d="M256 54.75C257.085 54.7423 258.171 54.7345 259.289 54.7266C269.735 54.7515 279.759 55.5894 289.125 60.5C289.802 60.8526 290.48 61.2051 291.178 61.5684C303.291 68.1848 310.287 78.2645 315 91C316.847 97.7253 317.018 104.084 317 111C318.248 110.994 318.248 110.994 319.521 110.989C339.777 110.9 360.034 110.834 380.291 110.793C390.088 110.772 399.884 110.744 409.68 110.698C418.22 110.658 426.76 110.633 435.301 110.624C439.821 110.618 444.341 110.606 448.862 110.577C453.121 110.55 457.379 110.542 461.639 110.548C463.197 110.546 464.756 110.539 466.315 110.523C474.61 110.445 481.731 110.587 489 115C489.976 115.567 489.976 115.567 490.972 116.146C497.786 120.282 502.042 127.412 504 135C504.301 139.178 504.278 143.349 504.267 147.537C504.272 148.813 504.277 150.089 504.281 151.404C504.293 154.94 504.293 158.476 504.291 162.012C504.29 165.828 504.301 169.644 504.311 173.46C504.328 180.934 504.333 188.408 504.334 195.883C504.335 201.959 504.339 208.036 504.346 214.113C504.363 231.347 504.372 248.582 504.371 265.816C504.371 266.745 504.371 267.674 504.371 268.631C504.371 269.561 504.37 270.491 504.37 271.45C504.37 286.519 504.389 301.589 504.417 316.658C504.446 332.138 504.459 347.617 504.458 363.096C504.457 371.784 504.463 380.472 504.484 389.16C504.502 396.558 504.507 403.955 504.493 411.353C504.487 415.126 504.486 418.898 504.504 422.67C504.522 426.765 504.51 430.86 504.495 434.955C504.505 436.14 504.515 437.324 504.526 438.545C504.446 448.141 502.383 456.316 495.703 463.469C488.818 469.659 481.532 472.312 472.29 472.257C471.53 472.261 470.769 472.264 469.985 472.268C467.434 472.277 464.883 472.272 462.331 472.267C460.485 472.271 458.638 472.276 456.791 472.281C451.714 472.293 446.637 472.293 441.56 472.291C436.086 472.29 430.611 472.301 425.137 472.311C414.41 472.328 403.684 472.333 392.957 472.334C384.239 472.335 375.521 472.339 366.804 472.346C346.115 472.36 325.426 472.373 304.738 472.372C303.745 472.371 303.745 472.371 302.733 472.371C299.38 472.371 296.026 472.371 292.673 472.371C291.674 472.371 291.674 472.371 290.655 472.371C289.308 472.371 287.962 472.371 286.615 472.37C265.662 472.369 244.709 472.384 223.756 472.412C200.214 472.442 176.672 472.46 153.13 472.458C140.665 472.457 128.201 472.463 115.736 472.484C105.124 472.502 94.5123 472.507 83.9004 472.493C78.4856 472.487 73.071 472.486 67.6563 472.504C62.6987 472.519 57.7414 472.517 52.7838 472.499C50.991 472.496 49.1983 472.5 47.4057 472.511C30.2809 472.61 30.2809 472.61 23 468C22.1905 467.531 21.381 467.062 20.5469 466.578C13.9597 461.709 10.0757 455.946 8.00002 448C7.69778 443.819 7.72172 439.646 7.73259 435.456C7.72806 434.179 7.72353 432.902 7.71886 431.587C7.70664 428.049 7.70688 424.511 7.70924 420.974C7.70965 417.155 7.69861 413.337 7.68913 409.519C7.67253 402.041 7.66702 394.563 7.66591 387.086C7.66496 381.006 7.66085 374.927 7.65451 368.848C7.6369 351.609 7.62767 334.369 7.62917 317.129C7.62925 316.2 7.62933 315.271 7.62941 314.314C7.62949 313.383 7.62957 312.453 7.62965 311.495C7.63047 296.418 7.61133 281.341 7.58313 266.264C7.5544 250.78 7.5406 235.295 7.54233 219.81C7.54299 211.118 7.53749 202.426 7.51596 193.734C7.49774 186.334 7.49341 178.934 7.50699 171.533C7.51352 167.759 7.51364 163.985 7.49628 160.211C7.47763 156.115 7.49011 152.02 7.50554 147.925C7.49525 146.737 7.48496 145.549 7.47437 144.326C7.55476 134.672 10.2392 126.136 17 119C23.8221 113.517 30.0578 110.746 38.9097 110.759C39.5804 110.758 40.2511 110.756 40.9422 110.754C43.1763 110.751 45.41 110.762 47.6441 110.773C49.2508 110.774 50.8576 110.773 52.4644 110.772C56.8172 110.771 61.17 110.783 65.5228 110.797C70.0752 110.81 74.6276 110.811 79.18 110.813C87.7965 110.819 96.413 110.836 105.029 110.856C114.841 110.878 124.652 110.889 134.463 110.899C154.642 110.92 174.821 110.955 195 111C195.053 109.913 195.105 108.826 195.159 107.707C195.237 106.26 195.316 104.814 195.395 103.367C195.428 102.653 195.462 101.939 195.496 101.204C196.235 88.1178 202.742 76.1468 212.191 67.1758C215.566 64.5613 219.026 62.5198 222.813 60.5625C223.439 60.2323 224.066 59.9022 224.712 59.562C234.514 54.8285 245.313 54.6738 256 54.75ZM221 83C213.758 91.42 212 100.079 212 111C241.04 111 270.08 111 300 111C300 100.298 298.107 91.1889 290.973 82.9336C281.113 73.269 269.512 71.4376 256.125 71.5625C254.408 71.5749 254.408 71.5749 252.657 71.5876C240.284 71.8354 229.993 73.8256 221 83Z" fill="#FEFEFE"/>
<path d="M256 54.75C257.085 54.7423 258.171 54.7345 259.289 54.7266C269.735 54.7515 279.759 55.5894 289.125 60.5C289.802 60.8526 290.48 61.2051 291.178 61.5684C303.291 68.1848 310.287 78.2645 315 91C316.847 97.7253 317.018 104.084 317 111C318.248 110.994 318.248 110.994 319.521 110.989C339.777 110.9 360.034 110.834 380.291 110.793C390.088 110.772 399.884 110.744 409.68 110.698C418.22 110.658 426.76 110.633 435.301 110.624C439.821 110.618 444.341 110.606 448.862 110.577C453.121 110.55 457.379 110.542 461.639 110.548C463.197 110.546 464.756 110.539 466.315 110.523C474.61 110.445 481.731 110.587 489 115C489.976 115.567 489.976 115.567 490.972 116.146C497.786 120.282 502.042 127.412 504 135C504.301 139.178 504.278 143.349 504.267 147.537C504.272 148.813 504.277 150.089 504.281 151.404C504.293 154.94 504.293 158.476 504.291 162.012C504.29 165.828 504.301 169.644 504.311 173.46C504.328 180.934 504.333 188.408 504.334 195.883C504.335 201.959 504.339 208.036 504.346 214.113C504.363 231.347 504.372 248.582 504.371 265.816C504.371 266.745 504.371 267.674 504.371 268.631C504.371 269.561 504.37 270.491 504.37 271.45C504.37 286.519 504.389 301.589 504.417 316.658C504.446 332.138 504.459 347.617 504.458 363.096C504.457 371.784 504.463 380.472 504.484 389.16C504.502 396.558 504.507 403.955 504.493 411.353C504.487 415.126 504.486 418.898 504.504 422.67C504.522 426.765 504.51 430.86 504.495 434.955C504.505 436.14 504.515 437.324 504.526 438.545C504.446 448.141 502.383 456.316 495.703 463.469C488.818 469.659 481.532 472.312 472.29 472.257C471.53 472.261 470.769 472.264 469.985 472.268C467.434 472.277 464.883 472.272 462.331 472.267C460.485 472.271 458.638 472.276 456.791 472.281C451.714 472.293 446.637 472.293 441.56 472.291C436.086 472.29 430.611 472.301 425.137 472.311C414.41 472.328 403.684 472.333 392.957 472.334C384.239 472.335 375.521 472.339 366.804 472.346C346.115 472.36 325.426 472.373 304.738 472.372C303.745 472.371 303.745 472.371 302.733 472.371C299.38 472.371 296.026 472.371 292.673 472.371C291.674 472.371 291.674 472.371 290.655 472.371C289.308 472.371 287.962 472.371 286.615 472.37C265.662 472.369 244.709 472.384 223.756 472.412C200.214 472.442 176.672 472.46 153.13 472.458C140.665 472.457 128.201 472.463 115.736 472.484C105.124 472.502 94.5123 472.507 83.9004 472.493C78.4856 472.487 73.071 472.486 67.6563 472.504C62.6987 472.519 57.7414 472.517 52.7838 472.499C50.991 472.496 49.1983 472.5 47.4057 472.511C30.2809 472.61 30.2809 472.61 23 468C22.1905 467.531 21.381 467.062 20.5469 466.578C13.9597 461.709 10.0757 455.946 8.00002 448C7.69778 443.819 7.72172 439.646 7.73259 435.456C7.72806 434.179 7.72353 432.902 7.71886 431.587C7.70664 428.049 7.70688 424.511 7.70924 420.974C7.70965 417.155 7.69861 413.337 7.68913 409.519C7.67253 402.041 7.66702 394.563 7.66591 387.086C7.66496 381.006 7.66085 374.927 7.65451 368.848C7.6369 351.609 7.62767 334.369 7.62917 317.129C7.62925 316.2 7.62933 315.271 7.62941 314.314C7.62949 313.383 7.62957 312.453 7.62965 311.495C7.63047 296.418 7.61133 281.341 7.58313 266.264C7.5544 250.78 7.5406 235.295 7.54233 219.81C7.54299 211.118 7.53749 202.426 7.51596 193.734C7.49774 186.334 7.49341 178.934 7.50699 171.533C7.51352 167.759 7.51364 163.985 7.49628 160.211C7.47763 156.115 7.49011 152.02 7.50554 147.925C7.49525 146.737 7.48496 145.549 7.47437 144.326C7.55476 134.672 10.2392 126.136 17 119C23.8221 113.517 30.0578 110.746 38.9097 110.759C39.5804 110.758 40.2511 110.756 40.9422 110.754C43.1763 110.751 45.41 110.762 47.6441 110.773C49.2508 110.774 50.8576 110.773 52.4644 110.772C56.8172 110.771 61.17 110.783 65.5228 110.797C70.0752 110.81 74.6276 110.811 79.18 110.813C87.7965 110.819 96.413 110.836 105.029 110.856C114.841 110.878 124.652 110.889 134.463 110.899C154.642 110.92 174.821 110.955 195 111C195.053 109.913 195.105 108.826 195.159 107.707C195.237 106.26 195.316 104.814 195.395 103.367C195.428 102.653 195.462 101.939 195.496 101.204C196.235 88.1178 202.742 76.1468 212.191 67.1758C215.566 64.5613 219.026 62.5198 222.813 60.5625C223.439 60.2323 224.066 59.9022 224.712 59.562C234.514 54.8285 245.313 54.6738 256 54.75ZM221 83C213.758 91.42 212 100.079 212 111C241.04 111 270.08 111 300 111C300 100.298 298.107 91.1889 290.973 82.9336C281.113 73.269 269.512 71.4376 256.125 71.5625C254.408 71.5749 254.408 71.5749 252.657 71.5876C240.284 71.8354 229.993 73.8256 221 83ZM27 133C24.4671 136.594 23.6248 138.993 23.6225 143.377C23.6147 144.45 23.6068 145.522 23.5988 146.626C23.6055 147.798 23.6122 148.97 23.6191 150.178C23.6144 151.427 23.6097 152.677 23.6049 153.965C23.5924 157.431 23.5985 160.896 23.6078 164.363C23.6146 168.102 23.6042 171.84 23.5959 175.579C23.5826 182.903 23.5855 190.227 23.5941 197.551C23.6009 203.504 23.6018 209.456 23.5986 215.408C23.5981 216.255 23.5976 217.102 23.5972 217.975C23.5962 219.695 23.5952 221.415 23.5943 223.136C23.5857 239.272 23.5955 255.408 23.6117 271.545C23.6251 285.391 23.6227 299.238 23.6089 313.085C23.5928 329.161 23.5865 345.238 23.5957 361.315C23.5967 363.029 23.5976 364.743 23.5986 366.458C23.599 367.301 23.5995 368.145 23.6 369.014C23.6026 374.959 23.5982 380.904 23.5911 386.848C23.5827 394.094 23.585 401.339 23.601 408.585C23.6089 412.281 23.6119 415.978 23.602 419.675C23.5914 423.682 23.6041 427.688 23.6191 431.695C23.6124 432.865 23.6057 434.035 23.5988 435.24C23.6458 441.701 23.9103 446.69 28.5352 451.645C33.4441 455.398 36.0608 456.147 42.1166 456.131C42.8617 456.133 43.6068 456.136 44.3744 456.138C46.897 456.143 49.4196 456.142 51.9422 456.14C53.7587 456.143 55.5752 456.146 57.3917 456.149C62.4037 456.158 67.4157 456.159 72.4277 456.16C77.8252 456.162 83.2227 456.169 88.6203 456.176C100.432 456.19 112.244 456.196 124.056 456.2C131.427 456.203 138.798 456.207 146.168 456.212C166.563 456.224 186.957 456.234 207.351 456.238C208.657 456.238 209.963 456.238 211.309 456.238C213.273 456.239 213.273 456.239 215.277 456.239C217.93 456.239 220.583 456.24 223.237 456.24C225.211 456.241 225.211 456.241 227.225 456.241C248.557 456.245 269.889 456.262 291.222 456.286C313.105 456.309 334.989 456.322 356.873 456.323C369.167 456.324 381.461 456.33 393.755 456.348C404.223 456.363 414.691 456.368 425.159 456.36C430.502 456.356 435.846 456.357 441.189 456.371C446.078 456.384 450.967 456.383 455.856 456.37C457.628 456.369 459.399 456.372 461.17 456.38C463.574 456.391 465.976 456.384 468.38 456.372C469.071 456.38 469.762 456.387 470.475 456.395C475.695 456.338 479.752 455.05 483.645 451.5C487.033 447.148 488.123 444.319 488.14 438.874C488.146 437.807 488.151 436.74 488.157 435.641C488.159 433.876 488.159 433.876 488.161 432.076C488.166 430.83 488.171 429.583 488.176 428.299C488.19 424.832 488.198 421.366 488.204 417.899C488.21 414.927 488.22 411.955 488.231 408.984C488.264 399.192 488.285 389.401 488.304 379.61C488.309 377.061 488.314 374.511 488.319 371.962C488.35 356.133 488.376 340.305 488.393 324.476C488.397 320.809 488.401 317.142 488.405 313.476C488.407 312.109 488.407 312.109 488.408 310.714C488.425 295.95 488.466 281.186 488.517 266.422C488.569 251.267 488.598 236.111 488.605 220.955C488.61 212.444 488.625 203.934 488.665 195.424C488.699 188.176 488.713 180.929 488.701 173.682C488.695 169.984 488.699 166.287 488.729 162.59C488.761 158.579 488.747 154.57 488.728 150.559C488.745 149.394 488.762 148.228 488.779 147.028C488.705 140.65 487.924 136.61 483.873 131.601C479.081 127.504 474.54 126.559 468.397 126.614C467.273 126.606 467.273 126.606 466.127 126.598C463.614 126.584 461.103 126.592 458.59 126.599C456.772 126.593 454.953 126.586 453.135 126.578C448.136 126.56 443.137 126.56 438.137 126.564C432.747 126.564 427.356 126.548 421.965 126.534C411.404 126.509 400.842 126.501 390.28 126.499C381.697 126.497 373.113 126.491 364.53 126.482C340.202 126.455 315.874 126.441 291.546 126.444C290.235 126.444 288.923 126.444 287.571 126.444C286.258 126.444 284.945 126.444 283.591 126.444C262.3 126.446 241.008 126.417 219.716 126.375C197.862 126.332 176.007 126.311 154.152 126.313C141.879 126.314 129.607 126.306 117.334 126.274C106.886 126.247 96.4381 126.24 85.9901 126.26C80.6584 126.27 75.3271 126.27 69.9955 126.244C65.1148 126.221 60.235 126.225 55.3544 126.251C53.5886 126.256 51.8228 126.25 50.0571 126.234C37.1494 125.855 37.1494 125.855 27 133Z" fill="#2C44C8"/>
<path d="M136.625 183.75C137.573 183.729 138.52 183.709 139.496 183.688C153.452 183.611 167.001 189.376 177.168 199.008C190.994 214.042 195.854 230.37 195.449 250.32C194.846 261.598 190.392 271.788 184 281C184 281.66 184 282.32 184 283C185.686 284.279 185.686 284.279 187.875 285.563C207.892 298.541 219.615 318.555 224.542 341.527C225.184 346.396 225.203 351.222 225.238 356.129C225.246 357.196 225.254 358.263 225.263 359.363C225.277 361.613 225.287 363.863 225.295 366.113C225.307 368.415 225.327 370.716 225.357 373.017C225.399 376.346 225.416 379.675 225.426 383.004C225.443 384.031 225.461 385.058 225.479 386.117C225.457 393.249 225.457 393.249 223.098 397.125C219.547 400.299 217.307 400.13 212.605 400.147C211.941 400.151 211.277 400.155 210.594 400.158C208.359 400.169 206.124 400.173 203.889 400.177C202.291 400.183 200.693 400.19 199.095 400.197C194.746 400.214 190.397 400.225 186.047 400.233C183.331 400.238 180.615 400.244 177.899 400.251C169.405 400.27 160.911 400.284 152.416 400.292C142.604 400.302 132.792 400.328 122.981 400.369C115.401 400.399 107.821 400.414 100.242 400.417C95.7124 400.419 91.1836 400.428 86.6545 400.454C82.3937 400.477 78.1333 400.481 73.8724 400.471C72.3087 400.47 70.745 400.477 69.1814 400.49C67.0458 400.508 64.9116 400.501 62.776 400.488C61.5812 400.49 60.3864 400.493 59.1553 400.495C55.3645 399.9 53.7147 398.658 51.0001 396C49.8311 393.662 49.8552 392.243 49.8231 389.636C49.8102 388.731 49.7974 387.825 49.7842 386.891C49.7768 385.905 49.7694 384.919 49.7618 383.902C49.7537 382.88 49.7456 381.858 49.7373 380.805C49.7235 378.628 49.7127 376.452 49.7049 374.275C49.6935 372.077 49.6732 369.879 49.6434 367.68C49.2786 340.793 54.531 317.565 73.0001 297C78.5311 291.469 84.2191 286.893 91.0001 283C89.6022 279.315 87.9199 275.911 86.0626 272.438C78.2478 256.712 77.6794 238.708 83.0001 222C88.6857 207.33 99.1374 195.386 113.293 188.367C121.424 184.901 127.842 183.797 136.625 183.75Z" fill="#478CF9"/>
<path d="M108 296C109.97 296.912 111.908 297.895 113.812 298.937C126.522 305.433 140.058 305.572 153.859 302.07C158.269 300.568 162.23 298.455 166.246 296.109C169.698 294.719 171.451 294.971 175 296C191.531 304.719 201.668 320.338 207.09 337.687C211.47 353.63 209 363.823 209 384C161.81 384 114.62 384 66 384C66 326.917 66 326.917 86.1094 306.672C99.7191 294.092 99.7191 294.092 108 296Z" fill="#D0E1FD"/>
<path d="M154.867 202.672C167.009 210.233 175.229 220.013 179 234C180.742 249.749 178.102 262.872 168.223 275.559C160.751 283.765 151.296 288.178 140.324 289.414C128.026 289.891 118.573 286.277 109.254 278.289C99.8043 268.692 95.6567 256.814 95.4375 243.562C95.5543 230.083 100.333 219.92 109.652 210.293C121.153 199.604 140.42 195.524 154.867 202.672Z" fill="#D1E1FD"/>
<path d="M300.832 352.372C301.843 352.361 301.843 352.361 302.876 352.35C305.129 352.333 307.381 352.351 309.635 352.369C311.253 352.364 312.871 352.356 314.489 352.347C318.88 352.329 323.27 352.342 327.661 352.361C332.256 352.378 336.851 352.369 341.447 352.364C349.164 352.359 356.881 352.375 364.598 352.403C373.519 352.435 382.44 352.435 391.361 352.418C399.944 352.402 408.527 352.409 417.11 352.426C420.763 352.433 424.415 352.432 428.067 352.424C432.368 352.417 436.669 352.429 440.97 352.456C442.548 352.463 444.126 352.463 445.704 352.456C447.86 352.447 450.013 352.463 452.168 352.485C453.374 352.488 454.58 352.491 455.822 352.494C459.641 353.102 461.302 354.272 464 357C464.997 360.189 465.31 362.07 464.25 365.25C463 367 463 367 460 369C457.034 369.26 457.034 369.26 453.326 369.274C452.645 369.279 451.963 369.285 451.26 369.29C448.971 369.305 446.682 369.306 444.393 369.306C442.754 369.314 441.114 369.322 439.475 369.332C435.019 369.354 430.562 369.362 426.105 369.367C423.323 369.371 420.54 369.377 417.757 369.384C408.052 369.409 398.348 369.422 388.643 369.426C379.59 369.429 370.538 369.459 361.485 369.501C353.718 369.536 345.95 369.551 338.183 369.552C333.541 369.553 328.9 369.561 324.259 369.59C319.895 369.616 315.531 369.618 311.167 369.602C309.564 369.6 307.961 369.607 306.358 369.623C304.172 369.643 301.987 369.633 299.801 369.615C298.577 369.617 297.353 369.619 296.092 369.621C293 369 293 369 290.61 366.649C288.616 363.369 288.292 361.774 289 358C292.675 353.383 294.988 352.375 300.832 352.372Z" fill="#1E2D39"/>
<path d="M300.87 213.358C301.888 213.346 301.888 213.346 302.926 213.333C305.193 213.31 307.459 213.324 309.727 213.337C311.355 213.329 312.983 213.318 314.611 213.306C319.028 213.279 323.445 213.283 327.863 213.295C331.551 213.303 335.239 213.294 338.927 213.285C347.626 213.266 356.326 213.271 365.025 213.293C374.001 213.316 382.976 213.298 391.952 213.26C399.659 213.229 407.366 213.221 415.073 213.232C419.676 213.239 424.279 213.237 428.882 213.213C433.209 213.192 437.536 213.199 441.863 213.23C443.451 213.236 445.039 213.232 446.627 213.217C448.796 213.199 450.962 213.217 453.13 213.245C454.95 213.246 454.95 213.246 456.806 213.248C461.361 214.321 462.446 216.132 465 220C465.125 223.125 465.125 223.125 464 226C460.149 229.858 457.551 230.502 452.168 230.515C451.494 230.522 450.819 230.529 450.124 230.536C447.871 230.554 445.619 230.544 443.365 230.533C441.747 230.54 440.129 230.549 438.511 230.56C434.12 230.582 429.73 230.579 425.339 230.57C421.674 230.565 418.008 230.572 414.342 230.58C405.696 230.597 397.049 230.593 388.402 230.576C379.481 230.559 370.56 230.575 361.639 230.608C353.978 230.634 346.318 230.642 338.658 230.633C334.083 230.628 329.508 230.63 324.933 230.651C320.632 230.669 316.331 230.663 312.03 230.639C310.452 230.634 308.874 230.637 307.296 230.65C305.14 230.666 302.987 230.651 300.832 230.628C299.626 230.628 298.42 230.627 297.178 230.626C293.071 229.817 291.577 228.231 289 225C288.375 222 288.375 222 289 219C292.688 214.373 295.011 213.374 300.87 213.358Z" fill="#1D2C39"/>
<path d="M299.794 283.499C300.477 283.493 301.159 283.488 301.862 283.482C304.149 283.468 306.434 283.483 308.721 283.498C310.36 283.495 312 283.489 313.639 283.482C318.091 283.468 322.544 283.479 326.996 283.496C331.653 283.509 336.311 283.503 340.968 283.499C348.789 283.497 356.611 283.51 364.432 283.533C373.478 283.56 382.523 283.562 391.568 283.55C400.266 283.539 408.964 283.545 417.662 283.56C421.365 283.565 425.068 283.565 428.772 283.561C433.132 283.556 437.492 283.566 441.852 283.588C443.453 283.593 445.054 283.594 446.655 283.589C448.839 283.583 451.022 283.595 453.206 283.612C455.04 283.616 455.04 283.616 456.911 283.62C460.274 284.034 461.694 284.54 464 287C464.778 292.361 464.778 292.361 464 295C461.411 298.176 459.915 299.819 455.837 300.626C454.04 300.627 454.04 300.627 452.206 300.628C451.201 300.639 451.201 300.639 450.175 300.65C447.935 300.667 445.697 300.649 443.457 300.631C441.849 300.636 440.24 300.644 438.632 300.653C434.268 300.671 429.905 300.658 425.541 300.639C420.974 300.622 416.407 300.631 411.839 300.636C404.169 300.641 396.499 300.625 388.829 300.597C379.962 300.565 371.096 300.565 362.23 300.582C353.699 300.598 345.168 300.591 336.638 300.574C333.008 300.567 329.378 300.568 325.748 300.576C321.473 300.583 317.199 300.571 312.924 300.544C311.355 300.537 309.787 300.537 308.218 300.544C306.076 300.553 303.936 300.537 301.794 300.515C300.595 300.512 299.397 300.509 298.163 300.506C294.373 299.9 292.716 298.659 290 296C288.58 293.159 288.685 291.145 289 288C292.145 283.733 294.643 283.5 299.794 283.499Z" fill="#21303C"/>
<path d="M101.5 42C108.05 45.8689 113.247 51.4671 115.566 58.8008C117.245 67.3122 116.241 74.7897 111.676 82.1289C107.384 88.2462 102.43 92.3488 95 94C86.0555 94.8556 78.3209 93.9421 70.9649 88.4922C65.4832 83.4876 62.4518 78.0198 61.6211 70.6289C61.3209 61.6317 62.9902 55.7298 67.75 48.25C76.5691 39.431 89.9892 36.7146 101.5 42Z" fill="#448AF9"/>
<path d="M440.098 39.6016C442.998 40.209 444.283 41.665 446 44C447.442 46.8842 447.094 49.4172 447.062 52.625C447.053 53.8135 447.044 55.002 447.035 56.2266C447.024 57.1418 447.012 58.057 447 59C447.964 58.9536 448.928 58.9072 449.922 58.8594C451.185 58.8233 452.448 58.7872 453.75 58.75C455.003 58.7036 456.256 58.6572 457.547 58.6094C461 59 461 59 463.395 60.8672C465.313 63.4164 465.924 64.8023 466 68C464.023 73.3063 464.023 73.3063 461.277 75.168C458.336 76.2428 455.874 76.1929 452.75 76.125C451.672 76.107 450.595 76.0889 449.484 76.0703C448.665 76.0471 447.845 76.0239 447 76C447.052 77.2124 447.052 77.2124 447.105 78.4492C447.133 79.5179 447.16 80.5865 447.187 81.6875C447.24 83.2711 447.24 83.2711 447.293 84.8867C446.96 88.4217 446.162 90.2066 444 93C440.33 94.5632 438.093 95.2672 434.187 94.3125C432 93 432 93 430 90C429.805 86.6445 429.805 86.6445 429.875 82.8125C429.893 81.5402 429.911 80.2679 429.93 78.957C429.953 77.9812 429.976 77.0054 430 76C428.788 76.0522 428.788 76.0522 427.551 76.1055C426.482 76.1326 425.414 76.1596 424.312 76.1875C422.729 76.2397 422.729 76.2397 421.113 76.293C416.659 75.8738 414.115 74.115 411 71C410.555 67.0712 410.57 64.7582 412.539 61.2891C415.345 58.6788 416.907 58.4689 420.684 58.5606C421.365 58.6025 422.047 58.6444 422.75 58.6875C423.447 58.7101 424.145 58.7326 424.863 58.7559C426.576 58.8145 428.288 58.9042 430 59C429.954 57.9636 429.907 56.9272 429.859 55.8594C429.822 54.4896 429.785 53.1198 429.75 51.75C429.716 51.0681 429.683 50.3862 429.648 49.6836C429.582 46.2632 429.744 44.3556 431.766 41.5469C434.764 39.4708 436.553 39.43 440.098 39.6016Z" fill="#438AF9"/>
<path d="M93 56C95.8101 57.7937 97.5094 59.0188 99 62C99.5552 66.6322 99.6365 69.9817 97.125 74C93.6142 77.3043 90.9357 77.3895 86.2618 77.3594C82.6748 76.7894 81.1316 74.7978 79 72C77.4255 68.8509 77.652 66.4799 78 63C81.6854 56.812 85.9233 54.9832 93 56Z" fill="#FAFBFE"/>
</svg>
