<svg width="512" height="512" viewBox="0 0 512 512" fill="none" xmlns="http://www.w3.org/2000/svg">
<path d="M255.313 -0.374934C256.827 -0.374118 256.827 -0.374118 258.372 -0.373286C274.881 -0.33252 290.798 0.574773 307 4.00007C308.042 4.21969 309.084 4.43931 310.157 4.66559C356.451 14.7632 398.864 37.1224 433 70.0001C433.989 70.9483 433.989 70.9483 434.998 71.9156C444.486 81.06 453.226 90.3574 461 101C461.858 102.151 462.716 103.302 463.574 104.453C469.612 112.643 474.995 121.145 480 130C480.402 130.707 480.804 131.414 481.219 132.143C495.971 158.346 505.505 187.286 510 217C510.177 218.125 510.355 219.249 510.537 220.408C512.189 231.962 512.357 243.405 512.313 255.063C512.31 256.557 512.31 256.557 512.307 258.081C512.262 272.593 511.805 286.723 509 301C508.839 301.896 508.678 302.791 508.512 303.714C497.691 363.526 463.633 421.041 415 458C414.46 458.417 413.919 458.833 413.363 459.263C403.368 466.946 392.908 473.688 382 480C381.323 480.394 380.646 480.789 379.948 481.195C353.973 496.135 324.562 505.529 295 510C293.878 510.177 292.755 510.353 291.599 510.535C279.985 512.192 268.468 512.398 256.75 512.375C255.739 512.375 254.729 512.375 253.687 512.374C237.128 512.34 221.253 511.391 205 508C204.109 507.818 203.218 507.636 202.3 507.449C196.455 506.215 190.724 504.704 185 503C184.078 502.727 183.157 502.454 182.207 502.173C161.547 495.932 141.274 487.59 123 476C122.307 475.561 121.615 475.122 120.901 474.669C104.528 464.186 89.9667 452.506 76 439C75.4451 438.467 74.8902 437.934 74.3184 437.385C67.3442 430.664 60.9372 423.668 55 416C54.5519 415.434 54.1038 414.867 53.6421 414.284C45.0695 403.431 37.8636 391.995 31 380C30.4359 379.037 30.4359 379.037 29.8604 378.054C8.4474 341.4 -0.47253 298.412 -0.312461 256.375C-0.310306 255.357 -0.308151 254.339 -0.30593 253.29C-0.25626 238.681 -0.00536299 224.349 3.00004 210C3.19872 209.025 3.39739 208.05 3.60209 207.046C13.7227 158.664 35.6392 114.676 70 79.0001C70.6322 78.3407 71.2643 77.6814 71.9156 77.002C81.06 67.5138 90.3574 58.7739 101 51.0001C102.151 50.142 103.302 49.2839 104.453 48.4258C112.643 42.3883 121.145 37.0055 130 32.0001C130.707 31.5979 131.414 31.1957 132.143 30.7813C155.279 17.7559 180.45 9.00705 206.438 3.68757C207.156 3.54021 207.875 3.39285 208.616 3.24103C224.143 0.289914 239.543 -0.407013 255.313 -0.374934Z" fill="#2C44C8"/>
<path d="M255.812 77.5624C256.686 77.5655 257.56 77.5685 258.46 77.5717C286.544 77.716 312.288 82.721 333 103C333.554 103.518 334.109 104.036 334.68 104.57C338.413 108.424 340.76 113.015 343.188 117.75C343.521 118.393 343.854 119.037 344.198 119.699C349.123 129.712 350.424 139.189 350.319 150.296C350.3 152.467 350.303 154.637 350.312 156.809C350.334 162.972 350.323 169.136 350.285 175.3C350.263 179.093 350.27 182.885 350.295 186.678C350.299 188.111 350.291 189.544 350.272 190.976C350.148 200.376 351.213 205.648 357 213C359.317 218.088 359.322 222.925 359.336 228.422C359.343 229.322 359.349 230.222 359.356 231.149C359.366 233.049 359.371 234.948 359.371 236.848C359.375 239.727 359.411 242.605 359.449 245.484C359.517 256.522 359.036 264.888 352.812 274.312C350.228 276.782 348.747 277.627 345.602 279.035C339.907 282.142 338.568 286.188 336.562 292.125C335.821 294.108 335.073 296.089 334.316 298.066C333.939 299.06 333.561 300.054 333.172 301.079C327.906 314.202 320.386 328.482 310.408 338.638C307.273 342.408 307.289 345.792 307.371 350.547C307.367 351.764 307.367 351.764 307.364 353.005C307.365 354.716 307.378 356.428 307.403 358.139C307.437 360.729 307.424 363.316 307.404 365.906C307.412 374.574 307.547 382.286 312 390C312.407 390.708 312.815 391.415 313.235 392.144C319.953 402.318 333.355 406.794 343.938 412.013C346.615 413.334 349.289 414.662 351.963 415.99C359.558 419.763 367.158 423.527 374.761 427.284C379.431 429.593 384.098 431.909 388.762 434.23C390.527 435.106 392.294 435.98 394.062 436.85C403.16 441.328 411.968 445.724 420 452C418.599 456.204 415.573 457.904 412.125 460.437C411.057 461.227 411.057 461.227 409.968 462.033C375.841 486.919 336.853 503.671 295 510C293.878 510.177 292.755 510.353 291.599 510.535C279.985 512.192 268.468 512.398 256.75 512.375C255.739 512.375 254.729 512.375 253.687 512.374C237.128 512.34 221.253 511.39 205 508C204.109 507.818 203.218 507.636 202.3 507.449C196.455 506.215 190.724 504.704 185 503C183.617 502.591 183.617 502.591 182.207 502.173C161.547 495.932 141.273 487.59 123 476C122.307 475.561 121.615 475.121 120.901 474.669C110.478 467.996 100.584 460.827 91 453C94.0412 448.666 97.4587 446.184 102 443.625C103.087 442.998 103.087 442.998 104.197 442.359C112.455 437.649 120.868 433.215 129.263 428.754C137.927 424.145 146.492 419.378 155.014 414.51C161.439 410.851 167.921 407.328 174.512 403.977C180.628 400.822 186.521 397.542 190.312 391.625C191.018 390.561 191.018 390.561 191.738 389.477C194.733 383.598 195.343 377.819 195.441 371.355C195.455 370.546 195.469 369.736 195.483 368.901C195.506 367.196 195.524 365.491 195.535 363.786C195.562 361.204 195.637 358.626 195.713 356.045C195.875 345.873 195.054 339.805 188 332C187.103 330.68 186.237 329.338 185.41 327.973C185.022 327.336 184.635 326.699 184.235 326.043C176.511 312.997 170.262 299.358 166.897 284.518C165.566 279.236 163.215 277.263 159 274C157.355 271.43 157.355 271.43 156.188 268.875C155.789 268.027 155.391 267.179 154.98 266.305C153.604 263.069 152.871 260.454 152.823 256.963C152.804 255.75 152.804 255.75 152.784 254.513C152.777 253.641 152.769 252.769 152.762 251.871C152.754 250.967 152.746 250.062 152.737 249.131C152.723 247.213 152.713 245.296 152.705 243.379C152.693 241.43 152.673 239.482 152.643 237.534C152.287 214.106 152.287 214.106 159.047 206.782C161.411 203.414 161.499 201.643 161.498 197.564C161.508 196.282 161.518 195 161.529 193.679C161.525 192.998 161.521 192.317 161.516 191.615C161.504 189.464 161.515 187.315 161.532 185.165C161.559 181.363 161.565 177.562 161.563 173.761C161.561 167.703 161.576 161.646 161.619 155.588C161.629 153.49 161.62 151.392 161.61 149.294C161.67 138.037 163.44 127.923 168.625 117.875C168.969 117.199 169.313 116.523 169.668 115.827C172.917 109.708 176.982 104.779 182 99.9999C182.539 99.4534 183.078 98.9068 183.633 98.3437C202.734 80.298 230.838 77.3771 255.812 77.5624Z" fill="#E6EBEC"/>
</svg>
