<svg width="479" height="485" viewBox="0 0 479 485" fill="none" xmlns="http://www.w3.org/2000/svg">
<path d="M16.0168 0.868569C17.2571 0.864728 18.4973 0.860887 19.7752 0.856929C21.1538 0.857709 22.5325 0.858588 23.9111 0.859555C25.3739 0.856971 26.8366 0.853958 28.2994 0.850552C32.3244 0.842479 36.3494 0.840692 40.3744 0.839954C44.7133 0.838104 49.0522 0.830557 53.3911 0.823819C62.8807 0.810233 72.3703 0.804211 81.8599 0.799808C87.7838 0.797046 93.7077 0.792809 99.6316 0.788304C116.029 0.776112 132.427 0.765812 148.825 0.762429C149.874 0.762209 150.924 0.76199 152.005 0.761764C153.057 0.761545 154.109 0.761327 155.193 0.761102C157.326 0.760659 159.458 0.760212 161.59 0.759762C162.647 0.759541 163.705 0.75932 164.794 0.759091C181.935 0.755142 199.076 0.737685 216.217 0.714403C233.811 0.690699 251.404 0.678228 268.997 0.677061C278.877 0.676144 288.758 0.670379 298.638 0.652241C307.05 0.636853 315.462 0.631712 323.874 0.639979C328.166 0.64389 332.459 0.642934 336.751 0.628922C340.681 0.61621 344.611 0.617357 348.541 0.629513C349.962 0.631475 351.383 0.628369 352.805 0.619668C366.779 0.539536 366.779 0.539536 372 4C375.735 8.98074 375.416 14.1701 375.361 20.1366C375.363 21.1544 375.366 22.1723 375.369 23.2209C375.373 26.6297 375.357 30.038 375.341 33.4468C375.34 35.891 375.34 38.3352 375.342 40.7794C375.343 46.0406 375.334 51.3017 375.317 56.563C375.293 64.1697 375.285 71.7764 375.281 79.3832C375.275 91.7254 375.255 104.068 375.226 116.41C375.199 128.397 375.178 140.385 375.165 152.373C375.164 153.112 375.163 153.851 375.162 154.613C375.158 158.321 375.155 162.029 375.151 165.738C375.12 196.492 375.067 227.246 375 258C376.232 258.096 376.232 258.096 377.488 258.193C378.567 258.279 379.646 258.366 380.757 258.455C382.36 258.581 382.36 258.581 383.995 258.71C410.695 261.284 435.736 278.367 453 298C463.173 310.852 470.673 325.198 475 341C475.48 342.74 475.48 342.74 475.969 344.516C482.93 374.809 476.981 405.695 461 432C452.369 445.272 440.575 457.767 427 466C425.708 466.851 425.708 466.851 424.391 467.719C409.45 477.129 391.619 482.606 374.043 483.564C373.302 483.606 372.561 483.647 371.797 483.69C364.344 484.08 356.899 484.13 349.436 484.102C347.953 484.101 346.469 484.1 344.985 484.099C340.963 484.096 336.941 484.086 332.918 484.076C328.56 484.065 324.202 484.06 319.843 484.055C310.346 484.042 300.849 484.021 291.352 483.998C285.419 483.984 279.486 483.972 273.553 483.96C257.109 483.925 240.665 483.89 224.222 483.846C223.173 483.844 222.124 483.841 221.043 483.838C219.991 483.835 218.94 483.833 217.857 483.83C215.726 483.824 213.596 483.819 211.465 483.813C210.409 483.81 209.352 483.807 208.263 483.805C191.096 483.76 173.928 483.729 156.761 483.704C139.115 483.678 121.47 483.64 103.824 483.592C93.9239 483.565 84.024 483.543 74.124 483.533C65.707 483.524 57.2901 483.506 48.8732 483.474C44.5789 483.458 40.2846 483.447 35.9903 483.448C32.0615 483.45 28.133 483.438 24.2043 483.415C22.7815 483.409 21.3586 483.408 19.9358 483.412C18.0049 483.418 16.074 483.403 14.1432 483.388C12.5331 483.384 12.5331 483.384 10.8905 483.38C7.54717 482.94 5.69548 482.001 3.00002 480C0.549274 476.324 0.718073 473.574 0.73996 469.323C0.736154 468.53 0.732348 467.736 0.728427 466.919C0.718051 464.237 0.722029 461.556 0.725867 458.875C0.721418 456.942 0.716105 455.009 0.709998 453.076C0.695769 447.747 0.694156 442.418 0.694595 437.089C0.692951 431.349 0.679893 425.608 0.668403 419.868C0.645521 407.308 0.637628 394.748 0.632576 382.189C0.629323 374.351 0.622803 366.513 0.615575 358.676C0.596005 336.989 0.579522 315.302 0.576698 293.614C0.576604 292.921 0.57651 292.227 0.576413 291.512C0.576035 288.699 0.575671 285.887 0.575311 283.075C0.575039 280.958 0.574762 278.842 0.574485 276.725C0.574397 276.025 0.574308 275.326 0.574218 274.605C0.571312 252.626 0.549215 230.646 0.512961 208.666C0.472252 183.984 0.448559 159.301 0.448238 134.619C0.447653 121.546 0.439103 108.473 0.410241 95.3996C0.385782 84.2693 0.378407 73.1391 0.393489 62.0088C0.40068 56.3271 0.399705 50.6456 0.377078 44.9639C0.356575 39.7657 0.359007 34.568 0.379952 29.3698C0.383464 27.4862 0.378468 25.6026 0.364248 23.7191C0.346194 21.1635 0.358799 18.6099 0.379196 16.0545C0.366633 15.3186 0.35407 14.5828 0.341125 13.8247C0.406176 10.0321 0.99579 7.51975 3.28882 4.55909C7.48793 0.595561 10.3949 0.875099 16.0168 0.868569ZM22 23C22 167.87 22 312.74 22 462C114.4 462 206.8 462 302 462C298.648 458.648 295.38 455.578 291.812 452.5C270.515 433.118 258.363 404.59 257 376C256.959 375.166 256.918 374.332 256.875 373.473C256.199 345.382 265.955 319.967 283 298C283.596 297.23 284.191 296.461 284.805 295.668C300.399 276.753 323.731 265.938 347.04 260.461C349.031 259.993 351.015 259.496 353 259C353 181.12 353 103.24 353 23C243.77 23 134.54 23 22 23ZM307 303C306.316 303.602 305.631 304.204 304.926 304.824C290.093 318.724 278.936 340.961 277.875 361.401C277.09 388.608 283.393 412.292 302 433C302.862 433.969 302.862 433.969 303.742 434.957C315.439 447.353 331.567 455.956 348 460C348.83 460.224 349.66 460.449 350.516 460.68C373.06 465.855 397.973 460.976 417.5 448.898C439.695 434.084 454.667 413.242 460 387C464.232 362.231 458.372 337.497 444 317C430.891 298.731 412.579 286.856 391 281C390.127 280.755 389.255 280.51 388.355 280.258C359.411 273.603 328.791 283.651 307 303Z" fill="#2C44C8"/>
<path d="M66.4138 126.743C67.2965 126.736 68.1792 126.73 69.0887 126.723C70.5368 126.728 70.5368 126.728 72.0143 126.733C73.0432 126.728 74.0722 126.724 75.1323 126.719C78.5908 126.706 82.0491 126.708 85.5076 126.709C87.9828 126.704 90.458 126.697 92.9332 126.689C98.9649 126.673 104.997 126.667 111.028 126.666C115.93 126.665 120.833 126.661 125.735 126.655C139.631 126.637 153.527 126.628 167.423 126.629C168.547 126.629 168.547 126.629 169.693 126.629C170.818 126.63 170.818 126.63 171.966 126.63C184.126 126.63 196.286 126.611 208.446 126.583C220.929 126.554 233.413 126.541 245.896 126.542C252.905 126.543 259.915 126.537 266.924 126.516C273.514 126.496 280.104 126.496 286.694 126.511C289.116 126.513 291.538 126.508 293.959 126.496C297.259 126.481 300.559 126.49 303.859 126.506C304.822 126.495 305.785 126.485 306.778 126.474C311.052 126.519 313.371 126.609 317.071 128.906C320.322 132.436 320.33 135.094 320.293 139.738C319.863 143.054 318.391 144.75 316 147C313.692 148.154 312.384 148.128 309.817 148.134C308.934 148.139 308.052 148.143 307.143 148.148C306.168 148.148 305.193 148.147 304.188 148.147C302.641 148.153 302.641 148.153 301.063 148.158C297.585 148.169 294.106 148.173 290.628 148.177C288.143 148.183 285.658 148.19 283.173 148.197C275.701 148.216 268.228 148.227 260.755 148.236C257.238 148.24 253.72 148.245 250.203 148.251C238.513 148.268 226.823 148.282 215.133 148.289C212.099 148.291 209.065 148.293 206.031 148.295C204.899 148.296 204.899 148.296 203.745 148.297C191.524 148.305 179.302 148.33 167.081 148.363C154.539 148.396 141.997 148.414 129.454 148.417C122.41 148.419 115.366 148.428 108.322 148.454C101.698 148.477 95.0732 148.481 88.4485 148.471C86.014 148.47 83.5795 148.477 81.1451 148.49C77.8273 148.508 74.5105 148.501 71.1927 148.488C70.2242 148.499 69.2557 148.51 68.2579 148.521C63.9716 148.48 61.6374 148.395 57.9255 146.095C54.8971 142.8 54.7164 140.505 54.7813 136.035C55.1008 133.062 56.1141 131.29 58 129C60.8922 127.238 63.0487 126.749 66.4138 126.743Z" fill="#2C44C8"/>
<path d="M71.0084 265.86C71.7141 265.857 72.4197 265.854 73.1467 265.851C75.5111 265.842 77.8754 265.84 80.2398 265.839C81.935 265.834 83.6303 265.829 85.3256 265.824C89.931 265.811 94.5363 265.804 99.1418 265.8C102.019 265.797 104.896 265.793 107.773 265.788C116.776 265.775 125.778 265.765 134.78 265.761C145.172 265.757 155.564 265.739 165.956 265.71C173.989 265.689 182.022 265.678 190.055 265.677C194.853 265.676 199.651 265.67 204.449 265.652C208.962 265.636 213.474 265.634 217.987 265.642C219.642 265.643 221.298 265.639 222.953 265.629C225.215 265.616 227.476 265.622 229.738 265.633C231.003 265.631 232.268 265.63 233.571 265.628C237.368 266.04 239.763 266.999 243 269C245.404 272.412 246 274.382 246 278.563C244.814 282.64 243.237 284.316 240 287C237.056 288.472 234.438 288.133 231.149 288.14C230.08 288.145 230.08 288.145 228.989 288.149C226.589 288.158 224.188 288.16 221.788 288.161C220.072 288.166 218.355 288.171 216.639 288.176C211.967 288.189 207.296 288.196 202.624 288.2C199.707 288.203 196.79 288.207 193.873 288.212C184.751 288.225 175.629 288.235 166.506 288.239C155.968 288.243 145.429 288.261 134.89 288.29C126.75 288.312 118.61 288.322 110.47 288.323C105.605 288.324 100.741 288.33 95.8768 288.348C91.3009 288.364 86.7252 288.366 82.1492 288.358C80.4694 288.357 78.7896 288.361 77.1098 288.371C74.8168 288.384 72.5245 288.378 70.2315 288.368C68.9482 288.369 67.6649 288.37 66.3427 288.372C61.9274 287.881 59.3913 286.295 56.1875 283.313C54.428 279.886 54.2309 276.71 55 273C56.5895 270.067 58.5094 267.56 61.7339 266.349C64.8427 265.87 67.8624 265.867 71.0084 265.86Z" fill="#2C44C8"/>
<path d="M68.711 335.606C69.7034 335.596 69.7034 335.596 70.7158 335.587C72.9252 335.571 75.134 335.575 77.3435 335.58C78.9305 335.573 80.5176 335.564 82.1046 335.554C86.4104 335.532 90.716 335.529 95.0219 335.531C98.6178 335.531 102.214 335.523 105.81 335.514C114.294 335.495 122.778 335.492 131.261 335.499C140.011 335.506 148.76 335.483 157.51 335.446C165.025 335.415 172.54 335.404 180.055 335.408C184.543 335.41 189.03 335.404 193.517 335.38C197.737 335.357 201.956 335.359 206.176 335.38C207.723 335.383 209.27 335.378 210.817 335.364C223.965 335.251 223.965 335.251 227.905 338.413C231.186 342.464 231.354 344.779 231 350C229.349 353.539 228.284 354.811 225 357C222.084 357.257 222.084 357.257 218.447 357.267C217.444 357.274 217.444 357.274 216.42 357.281C214.175 357.294 211.93 357.292 209.684 357.291C208.076 357.297 206.468 357.303 204.86 357.311C200.488 357.329 196.116 357.333 191.744 357.335C188.096 357.336 184.448 357.344 180.8 357.351C172.193 357.367 163.587 357.372 154.98 357.371C146.099 357.369 137.218 357.391 128.336 357.422C120.714 357.448 113.092 357.459 105.47 357.458C100.916 357.457 96.3627 357.463 91.8091 357.484C87.5261 357.503 83.2435 357.504 78.9605 357.489C77.3887 357.487 75.8169 357.492 74.2452 357.504C72.0987 357.519 69.9536 357.51 67.8071 357.495C66.6063 357.496 65.4054 357.497 64.1681 357.498C60.37 356.901 58.7191 355.664 56 353C54.128 349.256 54.5149 344.632 55.6875 340.688C59.1772 336.201 63.2948 335.623 68.711 335.606Z" fill="#2C44C8"/>
<path d="M68.9647 56.7393C69.9389 56.7322 70.9132 56.7251 71.9169 56.7178C73.5029 56.7216 73.5029 56.7216 75.1208 56.7253C76.8046 56.7177 76.8046 56.7177 78.5224 56.7099C82.2324 56.696 85.9422 56.6969 89.6523 56.6992C92.2315 56.6953 94.8108 56.691 97.39 56.6862C102.796 56.6788 108.202 56.6789 113.608 56.6843C119.849 56.6904 126.09 56.6781 132.331 56.6568C138.345 56.637 144.359 56.634 150.372 56.6375C152.927 56.637 155.481 56.6317 158.036 56.6217C161.607 56.6093 165.178 56.6161 168.75 56.6277C169.805 56.62 170.86 56.6124 171.947 56.6045C177.381 56.6435 181.33 56.8914 186 60C188.164 62.373 188.956 63.9665 189.094 67.1836C188.841 71.0314 188.469 73.3741 186.125 76.5C182.81 78.84 180.137 79.1268 176.193 79.1404C175.203 79.1462 174.214 79.1519 173.194 79.1577C171.567 79.1594 171.567 79.1594 169.907 79.1611C168.763 79.1661 167.62 79.1711 166.442 79.1762C162.651 79.1908 158.861 79.1976 155.07 79.2031C152.441 79.2089 149.812 79.2146 147.182 79.2204C142.371 79.23 137.56 79.2359 132.749 79.2389C125.671 79.2434 118.593 79.2609 111.515 79.2899C105.382 79.3141 99.2484 79.3218 93.115 79.3236C90.5067 79.3266 87.8983 79.3346 85.29 79.3478C81.6439 79.3648 77.9982 79.3629 74.352 79.3564C72.731 79.3703 72.731 79.3703 71.0772 79.3844C64.6834 79.3486 60.9848 78.779 56.1875 74.3125C54.4396 70.9087 54.3385 67.6971 55 64C58.3123 58.3568 62.6053 56.7548 68.9647 56.7393Z" fill="#2C44C8"/>
<path d="M206.699 196.612C207.64 196.602 208.581 196.593 209.55 196.582C211.087 196.589 211.087 196.589 212.656 196.596C213.741 196.589 214.826 196.582 215.944 196.575C219.534 196.557 223.124 196.561 226.715 196.566C229.208 196.562 231.702 196.557 234.195 196.551C239.423 196.542 244.651 196.544 249.879 196.554C255.25 196.564 260.62 196.557 265.991 196.533C272.473 196.505 278.955 196.496 285.437 196.504C287.909 196.504 290.38 196.498 292.852 196.485C296.306 196.471 299.76 196.481 303.215 196.498C304.238 196.489 305.261 196.479 306.315 196.469C310.734 196.515 313.28 196.559 317.112 198.906C320.31 202.452 320.33 205.111 320.293 209.738C319.863 213.054 318.391 214.75 316 217C313.633 218.183 312.189 218.136 309.548 218.154C308.611 218.163 307.675 218.171 306.71 218.18C305.679 218.184 304.649 218.188 303.587 218.193C301.962 218.205 301.962 218.205 300.305 218.218C296.709 218.243 293.112 218.259 289.516 218.273C288.289 218.279 287.063 218.284 285.799 218.29C279.979 218.314 274.158 218.333 268.337 218.346C262.289 218.359 256.242 218.385 250.194 218.432C243.708 218.481 237.222 218.506 230.736 218.513C228.262 218.52 225.789 218.535 223.315 218.559C219.853 218.591 216.393 218.591 212.931 218.583C211.908 218.6 210.886 218.616 209.832 218.633C205.267 218.593 202.019 218.523 198.374 215.592C195.509 212.464 195.043 210.995 194.828 206.926C195.172 203.073 197.013 200.875 199.82 198.388C202.358 196.772 203.716 196.621 206.699 196.612Z" fill="#2C44C8"/>
<path d="M65.3892 405.726C66.2865 405.716 67.1837 405.706 68.1081 405.696C69.09 405.695 70.0719 405.694 71.0835 405.694C72.1195 405.685 73.1556 405.677 74.223 405.668C77.6565 405.644 81.0898 405.636 84.5234 405.629C86.9061 405.62 89.2888 405.611 91.6715 405.602C96.67 405.585 101.668 405.577 106.667 405.574C113.075 405.569 119.483 405.531 125.892 405.486C130.814 405.456 135.736 405.449 140.659 405.448C143.022 405.444 145.384 405.431 147.747 405.41C151.051 405.383 154.354 405.388 157.658 405.401C159.124 405.378 159.124 405.378 160.621 405.356C165.276 405.406 167.316 405.465 171.084 408.412C174.123 412.516 174.348 414.865 174 420C172.297 423.831 170.842 425.441 167 427C164.882 427.255 164.882 427.255 162.566 427.261C161.244 427.271 161.244 427.271 159.894 427.282C158.935 427.28 157.975 427.277 156.987 427.275C155.97 427.28 154.953 427.285 153.906 427.29C150.543 427.304 147.18 427.303 143.816 427.301C141.48 427.305 139.144 427.309 136.807 427.314C131.909 427.321 127.01 427.321 122.112 427.316C115.833 427.31 109.554 427.327 103.274 427.35C98.4488 427.365 93.6233 427.366 88.7977 427.363C86.4825 427.363 84.1672 427.368 81.852 427.378C78.6154 427.391 75.3794 427.384 72.1428 427.372C70.7065 427.384 70.7065 427.384 69.2411 427.396C64.3466 427.357 60.958 427.223 57 424C54.4337 420.578 54.6356 417.154 55 413C57.3307 408.006 59.819 405.759 65.3892 405.726Z" fill="#2C44C8"/>
<path d="M68.1619 196.741C68.8874 196.738 69.6129 196.734 70.3604 196.731C72.7599 196.722 75.1591 196.728 77.5586 196.734C79.2262 196.733 80.8939 196.731 82.5615 196.729C86.0577 196.726 89.5538 196.73 93.05 196.739C97.5303 196.751 102.01 196.744 106.491 196.732C109.935 196.725 113.379 196.727 116.824 196.732C118.475 196.734 120.127 196.732 121.779 196.727C124.089 196.722 126.399 196.73 128.709 196.741C130.023 196.743 131.338 196.744 132.692 196.746C136.978 197.075 138.995 197.856 141.812 201.063C143.454 205.123 143.639 208.892 142 213C138.725 216.287 137.109 217.803 132.503 218.621C131.217 218.619 129.93 218.617 128.605 218.615C127.533 218.624 127.533 218.624 126.44 218.632C124.093 218.644 121.749 218.62 119.402 218.594C117.764 218.592 116.125 218.592 114.487 218.594C111.059 218.592 107.633 218.574 104.206 218.542C99.8186 218.502 95.4323 218.498 91.045 218.505C87.664 218.509 84.2832 218.496 80.9022 218.479C79.2847 218.472 77.6672 218.469 76.0498 218.47C73.7879 218.468 71.5271 218.447 69.2654 218.42C67.98 218.412 66.6946 218.403 65.3702 218.394C61.7714 217.973 59.8837 217.145 57 215C54.4337 211.578 54.6356 208.154 55 204C58.0195 197.53 61.3137 196.75 68.1619 196.741Z" fill="#2C44C8"/>
<path d="M309.523 381V376.193L326.483 352.943H309.54V346.091H337.153V350.898L320.193 374.148H337.136V381H309.523ZM342.314 346.091H352.763L361.626 367.705H362.036L370.899 346.091H381.348V381H373.132V359.557H372.842L364.456 380.778H359.206L350.82 359.438H350.53V381H342.314V346.091ZM394.98 381L384.821 346.091H394.145L399.412 368.966H399.702L405.719 346.091H413.321L419.338 369.017H419.628L424.912 346.091H434.219L424.077 381H415.946L409.656 359.83H409.384L403.094 381H394.98Z" fill="#2C44C8"/>
</svg>
